<?xml version="1.0" encoding="utf-8"?>
<!-- Generator: Adobe Illustrator 22.1.0, SVG Export Plug-In . SVG Version: 6.00 Build 0)  -->
<svg version="1.1" id="图层_1" xmlns="http://www.w3.org/2000/svg" xmlns:xlink="http://www.w3.org/1999/xlink" x="0px" y="0px"
	 viewBox="0 0 88 88" style="enable-background:new 0 0 88 88;" xml:space="preserve">
<style type="text/css">
	.st0{fill:#3DADD9;fill-opacity:6.000000e-02;stroke:#B2BFCF;stroke-width:2.2;stroke-linecap:round;}
	.st1{fill:none;stroke:#B2BFCF;stroke-width:2.2;}
	.st2{fill:none;stroke:#B2BFCF;stroke-width:2.2;stroke-linecap:round;}
	.st3{fill:none;stroke:#8FC8DE;stroke-width:3;stroke-linecap:round;}
</style>
<title>01_01.icon0101</title>
<desc>Created with Sketch.</desc>
<path id="Path-7" class="st0" d="M43.9,14c-2.6,2.1-21,15.6-10.4,38.7C34.8,54.3,39,57,44.3,57c3,0,7.9-0.8,10.3-4.2
	C56.3,48.4,64.6,28.9,43.9,14z"/>
<circle id="Oval-3" class="st1" cx="44" cy="35" r="5.5"/>
<path id="Path-8-Copy" class="st2" d="M57.5,44.5c4,1.7,6,4.6,6.6,5.9c0.9,2.5,0.5,10.1,0,10.9c-2.3,0.7-8.6-6.9-9-8.7"/>
<path id="Path-8-Copy-2" class="st2" d="M29.9,44.5c-4,1.7-6,4.6-6.6,5.9c-0.9,2.5-0.5,10.1,0,10.9c2.3,0.7,8.6-6.9,9-8.7"/>
<path id="Path-9" class="st3" d="M44,61.5v11.9"/>
<path id="Path-9-Copy" class="st3" d="M36.6,65.2v10.1"/>
<path id="Path-9-Copy-2" class="st3" d="M51.3,65.2v10.1"/>
</svg>
