<?xml version="1.0" encoding="UTF-8"?>
<svg width="106px" height="22px" viewBox="0 0 106 22" version="1.1" xmlns="http://www.w3.org/2000/svg" xmlns:xlink="http://www.w3.org/1999/xlink">
    <!-- Generator: Sketch 48.2 (47327) - http://www.bohemiancoding.com/sketch -->
    <title>01_01.logo</title>
    <desc>Created with Sketch.</desc>
    <defs></defs>
    <g id="01_01.首页(原状态)" stroke="none" stroke-width="1" fill="none" fill-rule="evenodd" transform="translate(-361.000000, -60.000000)">
        <g id="Group-29" fill="#49CCFF">
            <g id="Group-28" transform="translate(0.000000, 40.000000)">
                <g id="Group-25" transform="translate(359.000000, 12.000000)">
                    <path d="M17.296875,28.3027344 C15.8658783,28.9954462 13.9974074,29.3417969 11.6914062,29.3417969 C8.68357871,29.3417969 6.31836799,28.4576911 4.59570312,26.6894531 C2.87303826,24.9212151 2.01171875,22.5651189 2.01171875,19.6210938 C2.01171875,16.4856614 2.98013354,13.9427181 4.91699219,11.9921875 C6.85385083,10.0416569 9.36717205,9.06640625 12.4570312,9.06640625 C14.3711033,9.06640625 15.9843684,9.30794029 17.296875,9.79101562 L17.296875,14.0429688 C15.9843684,13.2591107 14.4895917,12.8671875 12.8125,12.8671875 C10.971345,12.8671875 9.48568273,13.4459578 8.35546875,14.6035156 C7.22525477,15.7610735 6.66015625,17.3287662 6.66015625,19.3066406 C6.66015625,21.2024834 7.19335404,22.7132105 8.25976562,23.8388672 C9.32617721,24.9645239 10.7617097,25.5273438 12.5664062,25.5273438 C14.2890711,25.5273438 15.8658783,25.1080771 17.296875,24.2695312 L17.296875,28.3027344 Z M27.1588906,29.3417969 C24.8255456,29.3417969 22.9912541,28.6878321 21.6559609,27.3798828 C20.3206678,26.0719336 19.6530312,24.2968862 19.6530312,22.0546875 C19.6530312,19.7395718 20.3457327,17.9280664 21.7311562,16.6201172 C23.1165798,15.3121679 24.989608,14.6582031 27.3502969,14.6582031 C29.6745272,14.6582031 31.4974257,15.3121679 32.8190469,16.6201172 C34.1406681,17.9280664 34.8014687,19.6575413 34.8014687,21.8085938 C34.8014687,24.1328241 34.1201605,25.9693943 32.7575234,27.3183594 C31.3948864,28.6673245 29.5286941,29.3417969 27.1588906,29.3417969 Z M27.2682656,17.9667969 C26.2474272,17.9667969 25.4544664,18.3177048 24.8893594,19.0195312 C24.3242524,19.7213577 24.0417031,20.7148373 24.0417031,22 C24.0417031,24.6888155 25.1263277,26.0332031 27.2956094,26.0332031 C29.3646301,26.0332031 30.399125,24.6523576 30.399125,21.890625 C30.399125,19.2747265 29.3555156,17.9667969 27.2682656,17.9667969 Z M39.9877031,12.7851562 C39.2585328,12.7851562 38.6615336,12.5686871 38.1966875,12.1357422 C37.7318414,11.7027973 37.4994219,11.1718781 37.4994219,10.5429688 C37.4994219,9.8958301 37.7318414,9.36718955 38.1966875,8.95703125 C38.6615336,8.54687295 39.2585328,8.34179688 39.9877031,8.34179688 C40.7259881,8.34179688 41.3252659,8.54687295 41.7855547,8.95703125 C42.2458434,9.36718955 42.4759844,9.8958301 42.4759844,10.5429688 C42.4759844,11.199222 42.2458434,11.7369771 41.7855547,12.15625 C41.3252659,12.5755229 40.7259881,12.7851562 39.9877031,12.7851562 Z M42.1205156,29 L37.8002031,29 L37.8002031,15 L42.1205156,15 L42.1205156,29 Z M59.4747187,29 L55.1680781,29 L55.1680781,21.2207031 C55.1680781,19.0514214 54.3933463,17.9667969 52.8438594,17.9667969 C52.0964598,17.9667969 51.4812316,18.2539034 50.9981562,18.828125 C50.5150809,19.4023466 50.2735469,20.131506 50.2735469,21.015625 L50.2735469,29 L45.9532344,29 L45.9532344,15 L50.2735469,15 L50.2735469,17.2148438 L50.3282344,17.2148438 C51.3581874,15.5104081 52.8575214,14.6582031 54.8262812,14.6582031 C57.9252551,14.6582031 59.4747187,16.581361 59.4747187,20.4277344 L59.4747187,29 Z M67.9285312,22.2460938 L67.9285312,29 L63.5125156,29 L63.5125156,9.39453125 L70.4304844,9.39453125 C75.3706132,9.39453125 77.8406406,11.4771927 77.8406406,15.6425781 C77.8406406,17.611338 77.1319888,19.2040955 75.714664,20.4208984 C74.2973392,21.6377014 72.4038035,22.2460938 70.034,22.2460938 L67.9285312,22.2460938 Z M67.9285312,12.7851562 L67.9285312,18.8964844 L69.6648594,18.8964844 C72.0164336,18.8964844 73.1922031,17.8665468 73.1922031,15.8066406 C73.1922031,13.7923076 72.0164336,12.7851562 69.6648594,12.7851562 L67.9285312,12.7851562 Z M93.0620312,23.2304688 L83.9292187,23.2304688 C84.0750528,25.263031 85.3556389,26.2792969 87.7710156,26.2792969 C89.3113879,26.2792969 90.66489,25.9147172 91.8315625,25.1855469 L91.8315625,28.3027344 C90.5372852,28.9954462 88.8556614,29.3417969 86.7866406,29.3417969 C84.5262126,29.3417969 82.7716729,28.7151755 81.5229687,27.4619141 C80.2742646,26.2086526 79.6499218,24.4609487 79.6499218,22.21875 C79.6499218,19.8945196 80.3243943,18.0533922 81.6733593,16.6953125 C83.0223244,15.3372328 84.681162,14.6582031 86.6499218,14.6582031 C88.6915987,14.6582031 90.2706845,15.2643169 91.3872265,16.4765625 C92.5037686,17.6888081 93.0620312,19.333974 93.0620312,21.4121094 L93.0620312,23.2304688 Z M89.0561718,20.578125 C89.0561718,18.5729066 88.244982,17.5703125 86.6225781,17.5703125 C85.9298663,17.5703125 85.3305884,17.857419 84.8247265,18.4316406 C84.3188646,19.0058622 84.0112505,19.7213499 83.901875,20.578125 L89.0561718,20.578125 Z M107.476781,29 L103.388891,29 L103.388891,26.9902344 L103.334203,26.9902344 C102.395396,28.5579505 101.005436,29.3417969 99.1642812,29.3417969 C97.8062015,29.3417969 96.7375273,28.9567096 95.9582265,28.1865234 C95.1789258,27.4163373 94.7892812,26.3886783 94.7892812,25.1035156 C94.7892812,22.3873562 96.3979891,20.8196636 99.6154531,20.4003906 L103.416234,19.8945312 C103.416234,18.3632736 102.586816,17.5976562 100.927953,17.5976562 C99.259976,17.5976562 97.6740544,18.0943961 96.1701406,19.0878906 L96.1701406,15.8339844 C96.7717061,15.524087 97.594289,15.2506522 98.637914,15.0136719 C99.681539,14.7766915 100.631725,14.6582031 101.4885,14.6582031 C105.480707,14.6582031 107.476781,16.6497197 107.476781,20.6328125 L107.476781,29 Z M103.416234,23.3125 L103.416234,22.3691406 L100.873266,22.6972656 C99.4696127,22.8795582 98.7677968,23.5130154 98.7677968,24.5976562 C98.7677968,25.0898462 98.9386936,25.4931625 99.2804922,25.8076172 C99.6222907,26.1220719 100.084851,26.2792969 100.668187,26.2792969 C101.479389,26.2792969 102.14019,25.9990262 102.650609,25.4384766 C103.161029,24.8779269 103.416234,24.1692751 103.416234,23.3125 Z" id="01_01.logo"></path>
                </g>
            </g>
        </g>
    </g>
</svg>