<?xml version="1.0" encoding="UTF-8"?>
<svg width="14px" height="13px" viewBox="0 0 14 13" version="1.1" xmlns="http://www.w3.org/2000/svg" xmlns:xlink="http://www.w3.org/1999/xlink">
    <!-- Generator: Sketch 48.2 (47327) - http://www.bohemiancoding.com/sketch -->
    <title>01_01.contact_icon0301</title>
    <desc>Created with Sketch.</desc>
    <defs></defs>
    <g id="01_01.首页(原状态)" stroke="none" stroke-width="1" fill="none" fill-rule="evenodd" transform="translate(-435.000000, -2047.000000)">
        <g id="Group-31" transform="translate(0.000000, 1917.000000)" fill="#586B82">
            <g id="Group-30" transform="translate(359.000000, 40.000000)">
                <g id="Group-27">
                    <path d="M89.3372916,90.0293847 C89.3786613,90.0621424 89.3972278,90.11599 89.3847498,90.1674532 L86.9486177,100.211269 C86.9399132,100.247476 86.9163925,100.278359 86.8842135,100.296809 C86.8635634,100.308454 86.8403205,100.314543 86.817147,100.314543 C86.8039745,100.314543 86.7906631,100.312691 86.7780693,100.308732 L81.9054115,98.8244718 C81.8618889,98.8112761 81.8280894,98.7769442 81.8151716,98.7333521 C81.8022305,98.6897832 81.8122315,98.6425334 81.8415861,98.6079468 L86.6919732,92.8666425 L80.6171653,98.3399123 C80.5817453,98.3721375 80.5318332,98.3829719 80.4856482,98.3684798 L76.0944247,96.9726771 C76.0421513,96.9560089 76.0052265,96.909523 76.0004112,96.8549114 C75.9961747,96.8002535 76.0249506,96.7484893 76.0737746,96.7234175 L89.1920002,90.015124 C89.2385092,89.9905384 89.2955747,89.9963723 89.3372916,90.0293847 Z M83.3311013,99.8904518 C83.3714523,99.9028835 83.4036776,99.9332567 83.418216,99.9728438 C83.4329859,100.012176 83.4282169,100.056278 83.4055065,100.091952 L82.0589214,102.219375 C82.0337801,102.259286 81.9902343,102.282251 81.9448365,102.282251 C81.9321039,102.282251 81.9194175,102.280399 81.9072404,102.27695 C81.8492257,102.260073 81.8095692,102.20729 81.8095692,102.147053 L81.8095692,99.605286 C81.8095692,99.5625042 81.8298952,99.5221301 81.8645049,99.4964563 C81.89886,99.4708752 81.943679,99.4629347 81.9843773,99.4761535 L83.3311013,99.8904518 Z" id="01_01.contact_icon0301"></path>
                </g>
            </g>
        </g>
    </g>
</svg>