<?xml version="1.0" encoding="UTF-8"?>
<svg width="13px" height="11px" viewBox="0 0 13 11" version="1.1" xmlns="http://www.w3.org/2000/svg" xmlns:xlink="http://www.w3.org/1999/xlink">
    <!-- Generator: Sketch 48.2 (47327) - http://www.bohemiancoding.com/sketch -->
    <title>01_01.contact_icon0102</title>
    <desc>Created with Sketch.</desc>
    <defs></defs>
    <g id="01_02.首页(鼠标悬停与点击下拉)" stroke="none" stroke-width="1" fill="none" fill-rule="evenodd" transform="translate(-361.000000, -2048.000000)">
        <g id="Group-31" transform="translate(0.000000, 1917.000000)" fill="#1DA1F3">
            <g id="Group-30" transform="translate(359.000000, 40.000000)">
                <g id="Group-27">
                    <path d="M14.6000004,92.2119247 C14.1365711,92.4174557 13.6380992,92.5564452 13.1152155,92.6190495 C13.6487301,92.2989407 14.058611,91.792594 14.2519362,91.1889941 C13.7522831,91.4850849 13.1990816,91.7004594 12.6104437,91.8162183 C12.138746,91.313809 11.4670294,91 10.7236526,91 C9.29595972,91 8.1387646,92.1571951 8.1387646,93.5848881 C8.1387646,93.787663 8.16160139,93.9849256 8.20570001,94.1739197 C6.05746708,94.0660355 4.15256405,93.0368052 2.87764135,91.472879 C2.65517955,91.8548046 2.52760853,92.298547 2.52760853,92.7726072 C2.52760853,93.6695417 2.98395053,94.4605607 3.67771637,94.9243837 C3.2540546,94.9109966 2.85559204,94.794844 2.50674043,94.6011251 C2.50634669,94.611756 2.50634669,94.6227806 2.50634669,94.6338053 C2.50634669,95.886285 3.39737512,96.9308711 4.57976946,97.1682949 C4.36281998,97.2273556 4.13445211,97.2588546 3.89860323,97.2588546 C3.73205218,97.2588546 3.57022598,97.2427114 3.41233716,97.2123936 C3.74110814,98.2392615 4.69592208,98.9865757 5.82713052,99.0074438 C4.94240189,99.7008159 3.82773044,100.113847 2.61659325,100.113847 C2.40791227,100.113847 2.20238118,100.101641 2,100.077623 C3.14380804,100.811156 4.50259687,101.239149 5.96257629,101.239149 C10.7173528,101.239149 13.3172029,97.3001971 13.3172029,93.8841287 C13.3172029,93.7719135 13.3148405,93.6604857 13.3097219,93.5498454 C13.8148874,93.1852443 14.2531175,92.7300835 14.5996066,92.2119247 L14.6000004,92.2119247 Z" id="01_01.contact_icon0102"></path>
                </g>
            </g>
        </g>
    </g>
</svg>