<?xml version="1.0" encoding="UTF-8"?>
<svg width="29px" height="29px" viewBox="0 0 29 29" version="1.1" xmlns="http://www.w3.org/2000/svg" xmlns:xlink="http://www.w3.org/1999/xlink">
    <!-- Generator: Sketch 48.2 (47327) - http://www.bohemiancoding.com/sketch -->
    <title>01_01.2dcode</title>
    <desc>Created with Sketch.</desc>
    <defs></defs>
    <g id="01_01.首页(原状态)" stroke="none" stroke-width="1" fill="none" fill-rule="evenodd" transform="translate(-1152.000000, -1501.000000)">
        <g id="Group-53" transform="translate(0.000000, 1357.000000)">
            <g id="Group-52" transform="translate(1088.000000, 50.000000)">
                <g id="Group-62" transform="translate(28.000000, 48.000000)">
                    <g id="Group-60">
                        <g id="Group-59" transform="translate(0.000000, 10.000000)">
                            <g id="Group-58">
                                <g id="01_01.2dcode" transform="translate(36.918675, 36.918675)">
                                    <circle id="Oval-5" fill="#FFFFFF" cx="13.9608434" cy="13.9608434" r="13.9608434"></circle>
                                    <g id="Group" transform="translate(2.538335, 2.538335)">
                                        <rect id="Rectangle" fill="#3DADD9" x="0" y="0" width="22.8450164" height="22.8450164" rx="11.4225082"></rect>
                                        <g id="05_18.icon" transform="translate(5.552608, 4.283441)" fill="#FFFFFF">
                                            <g id="logo">
                                                <g id="Group-12">
                                                    <g id="Group-10" transform="translate(0.004475, 0.007086)">
                                                        <path d="M10.0395422,7.40123876 C10.3764796,6.94725721 10.5774089,6.37900116 10.5774089,5.76157241 C10.5774089,4.27600354 9.41680654,3.07161927 7.98563883,3.07161927 L7.57253694,3.07161927 L7.57253694,0.99147657 C7.57253694,0.873046604 7.47098423,0.776432685 7.34730756,0.776432685 L6.59545489,0.776432715 C6.47141552,0.776432715 6.3702255,0.873392928 6.3702255,0.9914766 L6.3702255,3.0716193 L5.16827673,3.0716193 L5.16827673,0.9914766 C5.16827673,0.873046635 5.06672402,0.776432715 4.94304734,0.776432715 L4.19192003,0.776432715 C4.06788066,0.776432715 3.96669064,0.873392928 3.96669064,0.9914766 L3.96669064,3.0716193 L1.48735397,3.0716193 C1.3629519,3.0716193 1.26212458,3.16788692 1.26212458,3.28666318 L1.26212458,4.01109443 C1.26212458,4.1219061 1.34880707,4.21782743 1.46450461,4.22786975 C2.3110189,4.30197504 2.76474187,4.84425962 2.76474187,5.51051476 L2.76474187,9.95787163 C2.76474187,10.5572935 2.44086127,11.0330911 1.73289387,11.0981929 C1.63242925,11.1075426 1.54901096,11.1757611 1.53015115,11.2706435 L1.38652662,12.0020005 C1.36077576,12.1325505 1.46595533,12.2534045 1.60522761,12.2534045 L3.96596529,12.2534045 L3.96596529,14.3335472 C3.96596529,14.4519772 4.06751799,14.5485911 4.19119467,14.5485911 L4.94232198,14.5485911 C5.06636135,14.5485911 5.16755137,14.4516309 5.16755137,14.3335472 L5.16755137,12.2534045 L6.36950014,12.2534045 L6.36950014,14.3335472 C6.36950014,14.4519772 6.47105285,14.5485911 6.59472953,14.5485911 L7.34585684,14.5485911 C7.46989621,14.5485911 7.57108622,14.4516309 7.57108622,14.3335472 L7.57108622,12.2534045 L8.5851625,12.2534045 C10.0166929,12.2534045 11.1769325,11.0652957 11.1769325,9.59946516 C11.1783832,8.68457636 10.7268364,7.87842149 10.0395422,7.40123876 L10.0395422,7.40123876 Z M5.16791406,4.79300923 L7.00855677,4.79300923 C7.69331212,4.79300923 8.2482251,5.3228275 8.2482251,5.9766163 C8.2482251,6.6304051 7.69331212,7.16022337 7.00855677,7.16022337 L5.16791406,7.16022337 L5.16791406,4.79300923 L5.16791406,4.79300923 Z M7.60953116,10.6033496 L5.16791406,10.6033496 L5.16791406,8.23613541 L7.60953116,8.23613541 C8.29428651,8.23613541 8.84919949,8.76595368 8.84919949,9.41974248 C8.84919949,10.0735313 8.29428651,10.6033496 7.60953116,10.6033496 L7.60953116,10.6033496 Z" id="Combined-Shape" transform="translate(6.219530, 7.662512) rotate(10.000000) translate(-6.219530, -7.662512) "></path>
                                                    </g>
                                                </g>
                                            </g>
                                        </g>
                                    </g>
                                </g>
                            </g>
                        </g>
                    </g>
                </g>
            </g>
        </g>
    </g>
</svg>