<?xml version="1.0" encoding="UTF-8"?>
<svg width="28px" height="28px" viewBox="0 0 28 28" version="1.1" xmlns="http://www.w3.org/2000/svg" xmlns:xlink="http://www.w3.org/1999/xlink">
    <!-- Generator: Sketch 48.2 (47327) - http://www.bohemiancoding.com/sketch -->
    <title>01_02.portrait02</title>
    <desc>Created with Sketch.</desc>
    <defs></defs>
    <g id="01_02.首页(鼠标悬停与点击下拉)" stroke="none" stroke-width="1" fill="none" fill-rule="evenodd" transform="translate(-1358.000000, -109.000000)">
        <g id="Group-7" transform="translate(1235.000000, 94.000000)">
            <g id="Group-63" transform="translate(87.000000, 15.000000)">
                <g id="01_02.portrait02" transform="translate(36.000000, 0.000000)">
                    <circle id="Oval-4" fill="#CDD7E2" cx="14" cy="14" r="14"></circle>
                    <path d="M13.8396203,14.4283089 C16.1969122,14.4283089 18.1150359,12.5382568 18.114907,10.2141625 C18.114907,7.8901973 16.1969283,6 13.8396365,6 C11.4823608,6 9.56438205,7.89085851 9.56438205,10.2141625 C9.56436594,12.5375794 11.4823446,14.4283089 13.8396203,14.4283089 Z M15.6014511,14.8341126 L12.3980653,14.8341126 C9.42124379,14.8341126 7,17.2190379 7,20.1514104 L7,20.4670319 C7,22 9.38248892,22 12.3980653,22 L15.6014511,22 C18.498377,22 21,22 21,20.4670319 L21,20.1514104 C20.9999678,17.2196991 18.5783371,14.8341126 15.6014511,14.8341126 Z" id="Shape" fill="#92A3B7" fill-rule="nonzero"></path>
                </g>
            </g>
        </g>
    </g>
</svg>