<?xml version="1.0" encoding="UTF-8"?>
<svg width="18px" height="18px" viewBox="0 0 18 18" version="1.1" xmlns="http://www.w3.org/2000/svg" xmlns:xlink="http://www.w3.org/1999/xlink">
    <!-- Generator: Sketch 48.2 (47327) - http://www.bohemiancoding.com/sketch -->
    <title>01_02.portrait01</title>
    <desc>Created with Sketch.</desc>
    <defs></defs>
    <g id="01_02.首页(鼠标悬停与点击下拉)" stroke="none" stroke-width="1" fill="none" fill-rule="evenodd" transform="translate(-1379.000000, -64.000000)">
        <g id="Group-29">
            <g id="Group-28" transform="translate(0.000000, 40.000000)">
                <g id="Group-25" transform="translate(359.000000, 12.000000)">
                    <g id="01_02.portrait01" transform="translate(1020.000000, 12.000000)">
                        <circle id="Oval-4" fill="#8EA0B5" cx="9" cy="9" r="9"></circle>
                        <path d="M8.87618917,9.00657806 C10.5567796,9.00657806 11.9242729,7.65960016 11.9241809,6.00329477 C11.9241809,4.34708133 10.5567911,3 8.87620066,3 C7.19562167,3 5.82823189,4.34755256 5.82823189,6.00329477 C5.8282204,7.65911744 7.19561018,9.00657806 8.87618917,9.00657806 Z M10.132256,9.29578099 L7.84845737,9.29578099 C5.72618393,9.29578099 4,10.9954387 4,13.0852439 L4,13.3101769 C4,14.4026728 5.69855432,14.4026728 7.84845737,14.4026728 L10.132256,14.4026728 C12.1975692,14.4026728 13.9810582,14.4026728 13.9810582,13.3101769 L13.9810582,13.0852439 C13.9810352,10.9959099 12.2545754,9.29578099 10.132256,9.29578099 Z" id="Shape" fill="#223143" fill-rule="nonzero"></path>
                    </g>
                </g>
            </g>
        </g>
    </g>
</svg>