<?xml version="1.0" encoding="UTF-8"?>
<svg width="10px" height="10px" viewBox="0 0 10 10" version="1.1" xmlns="http://www.w3.org/2000/svg" xmlns:xlink="http://www.w3.org/1999/xlink">
    <!-- Generator: Sketch 48.2 (47327) - http://www.bohemiancoding.com/sketch -->
    <title>01_01.copyrighgt</title>
    <desc>Created with Sketch.</desc>
    <defs></defs>
    <g id="01_01.首页(原状态)" stroke="none" stroke-width="1" fill="none" fill-rule="evenodd" transform="translate(-1294.000000, -1994.000000)">
        <g id="Group-31" transform="translate(0.000000, 1917.000000)" fill="#8D9FB4">
            <g id="Group-2" transform="translate(1235.000000, 75.000000)">
                <g id="01_01.copyrighgt" transform="translate(59.000000, 2.000000)">
                    <g id="Group">
                        <path d="M7.63087637,3.471518 L7.10580595,3.80209703 C6.65197183,3.19923318 6.02967136,2.89780908 5.23888889,2.89780908 C4.61658842,2.89780908 4.09471049,3.09713615 3.67342723,3.49580595 C3.25198748,3.89449139 3.04137715,4.38887324 3.04137715,4.9786698 C3.04137715,5.5686072 3.24876369,6.074241 3.66369327,6.49553991 C4.0784507,6.91697966 4.60350548,7.12757433 5.23888889,7.12757433 C5.99732394,7.12757433 6.61964006,6.82616588 7.10580595,6.22330203 L7.63087637,6.57333333 C7.37153365,6.94935837 7.02314554,7.23785603 6.5856025,7.43871674 C6.14805947,7.63957746 5.67644757,7.74014085 5.17082942,7.74014085 C4.37348983,7.74014085 3.70744914,7.47760563 3.17264476,6.95253521 C2.63784038,6.42746479 2.37045383,5.78906103 2.37045383,5.03699531 C2.37045383,4.27217527 2.64103286,3.61899844 3.18236307,3.07769953 C3.72352113,2.53651017 4.41876369,2.26577465 5.26804382,2.26577465 C5.76713615,2.26577465 6.22899844,2.3727543 6.65364632,2.58665102 C7.07816901,2.80057903 7.40388106,3.09561815 7.63087637,3.47150235 L7.63087637,3.471518 Z" id="Shape"></path>
                        <path d="M5.00065728,0.00444444444 C2.24007825,0.00444444444 0.00217527387,2.24236307 0.00217527387,5.00295775 C0.00217527387,7.76358372 2.24007825,10.0014397 5.00065728,10.0014397 C7.7612989,10.0014397 9.99917058,7.76356808 9.99917058,5.00295775 C9.99917058,2.24236307 7.7612989,0.00444444444 5.00065728,0.00444444444 L5.00065728,0.00444444444 Z M5.00067293,9.24026604 C2.66045383,9.24026604 0.763364632,7.34317684 0.763364632,5.00295775 C0.763364632,2.66276995 2.66045383,0.765633803 5.00067293,0.765633803 C7.34089202,0.765633803 9.23798122,2.66276995 9.23798122,5.00295775 C9.23798122,7.34317684 7.34087637,9.24026604 5.00067293,9.24026604 L5.00067293,9.24026604 Z" id="Shape"></path>
                    </g>
                </g>
            </g>
        </g>
    </g>
</svg>