<?xml version="1.0" encoding="UTF-8"?>
<svg width="88px" height="88px" viewBox="0 0 88 88" version="1.1" xmlns="http://www.w3.org/2000/svg" xmlns:xlink="http://www.w3.org/1999/xlink">
    <!-- Generator: Sketch 48.2 (47327) - http://www.bohemiancoding.com/sketch -->
    <title>01_01.icon0301</title>
    <desc>Created with Sketch.</desc>
    <defs></defs>
    <g id="01_01.首页(原状态)" stroke="none" stroke-width="1" fill="none" fill-rule="evenodd" transform="translate(-1089.000000, -1668.000000)">
        <g id="Group-49" transform="translate(0.000000, 1602.000000)">
            <g id="Group-48" transform="translate(360.000000, 66.000000)">
                <g id="Group-45" transform="translate(701.000000, 0.000000)">
                    <g id="01_01.icon0301" transform="translate(28.000000, 0.000000)">
                        <rect id="Rectangle-9" fill="#FFFFFF" x="0" y="0" width="88" height="88"></rect>
                        <g id="Group-39" transform="translate(12.000000, 15.000000)">
                            <path d="M32.8106061,18.5034207 C25.6026417,18.5034207 4.62121212,20.3924317 4.62121212,30.1000401 C4.62121212,40.6798275 28.4385231,42.4587507 32.7044806,42.4587507 C37.1717433,42.9639706 61,40.1731871 61,30.1000401 C61,20.9686759 39.1524345,18.2278462 32.8106061,18.5034207 Z" id="Path-10" stroke="#D6DEE7" stroke-width="2.2" fill-opacity="0.0199999996" fill="#3DADD9"></path>
                            <path d="M31.8863636,18.5034207 C24.6783993,18.5034207 3.6969697,20.3924317 3.6969697,30.1000401 C3.6969697,40.6798275 27.5142807,42.4587507 31.7802382,42.4587507 C36.2475009,42.9639706 60.0757576,40.1731871 60.0757576,30.1000401 C60.0757576,20.9686759 38.228192,18.2278462 31.8863636,18.5034207 Z" id="Path-10-Copy" stroke="#C7D1DD" stroke-width="2.2" fill-opacity="0.0399999991" fill="#3DADD9" transform="translate(31.886364, 30.500000) rotate(-120.000000) translate(-31.886364, -30.500000) "></path>
                            <path d="M31.8863636,18.5034207 C24.6783993,18.5034207 3.6969697,20.3924317 3.6969697,30.1000401 C3.6969697,40.6798275 27.5142807,42.4587507 31.7802382,42.4587507 C36.2475009,42.9639706 60.0757576,40.1731871 60.0757576,30.1000401 C60.0757576,20.9686759 38.228192,18.2278462 31.8863636,18.5034207 Z" id="Path-10-Copy-2" stroke="#B2BFCF" stroke-width="2.2" fill-opacity="0.0599999987" fill="#3DADD9" transform="translate(31.886364, 30.500000) rotate(-60.000000) translate(-31.886364, -30.500000) "></path>
                            <g id="Group-41" transform="translate(41.590909, 0.924242)">
                                <circle id="Oval-6" fill="#FFFFFF" cx="4.62121212" cy="4.62121212" r="4.62121212"></circle>
                                <circle id="Oval-6" fill="#8FC8DE" cx="4.62121212" cy="4.62121212" r="2.77272727"></circle>
                            </g>
                            <g id="Group-41-Copy" transform="translate(0.000000, 26.803030)">
                                <circle id="Oval-6" fill="#FFFFFF" cx="4.62121212" cy="4.62121212" r="4.62121212"></circle>
                                <circle id="Oval-6" fill="#8FC8DE" cx="4.62121212" cy="4.62121212" r="2.77272727"></circle>
                            </g>
                            <g id="Group-41-Copy-2" transform="translate(41.590909, 49.909091)">
                                <circle id="Oval-6" fill="#FFFFFF" cx="4.62121212" cy="4.62121212" r="4.62121212"></circle>
                                <circle id="Oval-6" fill="#8FC8DE" cx="4.62121212" cy="4.62121212" r="2.77272727"></circle>
                            </g>
                        </g>
                    </g>
                </g>
            </g>
        </g>
    </g>
</svg>