<?xml version="1.0" encoding="UTF-8"?>
<svg width="12px" height="12px" viewBox="0 0 12 12" version="1.1" xmlns="http://www.w3.org/2000/svg" xmlns:xlink="http://www.w3.org/1999/xlink">
    <!-- Generator: Sketch 48.2 (47327) - http://www.bohemiancoding.com/sketch -->
    <title>01_01.close</title>
    <desc>Created with Sketch.</desc>
    <defs></defs>
    <g id="01_01.首页(原状态)" stroke="none" stroke-width="1" fill="none" fill-rule="evenodd" transform="translate(-1548.000000, -14.000000)" opacity="0.325860507">
        <g id="Group-29" fill="#FFFFFF" fill-rule="nonzero">
            <g id="Group-23">
                <g id="01_01.close" transform="translate(1548.000000, 14.000000)">
                    <path d="M11.8069072,10.8908938 L6.92071726,6.00234904 L11.8069072,1.11615912 C11.9340659,0.989000444 11.9976452,0.824165123 11.9976452,0.656974999 C11.9976452,0.492139678 11.9340659,0.324949566 11.8069072,0.197790889 C11.5525898,-0.0565264652 11.1428563,-0.0565264652 10.888539,0.197790889 L6.00234904,5.0863356 L1.11615912,0.197790889 C0.861841766,-0.0565264652 0.452108243,-0.0565264652 0.197790889,0.197790889 C-0.0565264652,0.452108243 -0.0565264652,0.861841766 0.197790889,1.11615912 L5.0863356,6.00234904 L0.197790889,10.8908938 C-0.0565264652,11.1452111 -0.0565264652,11.5549446 0.197790889,11.809262 C0.452108243,12.0635793 0.861841766,12.0635793 1.11615912,11.809262 L6.00234904,6.92071726 L10.8908938,11.8069072 C11.0180524,11.9340659 11.1828878,11.9976452 11.3500779,11.9976452 C11.5149132,11.9976452 11.6821033,11.9340659 11.809262,11.8069072 C12.0612245,11.5549446 12.0612245,11.1428563 11.8069072,10.8908938 Z" id="Shape"></path>
                </g>
            </g>
        </g>
    </g>
</svg>