<?xml version="1.0" encoding="UTF-8"?>
<svg width="13px" height="13px" viewBox="0 0 13 13" version="1.1" xmlns="http://www.w3.org/2000/svg" xmlns:xlink="http://www.w3.org/1999/xlink">
    <!-- Generator: Sketch 48.2 (47327) - http://www.bohemiancoding.com/sketch -->
    <title>01_01.contact_icon0402</title>
    <desc>Created with Sketch.</desc>
    <defs>
        <radialGradient cx="27.9218763%" cy="0%" fx="27.9218763%" fy="0%" r="111.470007%" gradientTransform="translate(0.279219,0.000000),scale(1.000000,1.000000),rotate(63.779754),translate(-0.279219,-0.000000)" id="radialGradient-1">
            <stop stop-color="#62C19F" offset="0%"></stop>
            <stop stop-color="#ECB32C" offset="65.7166773%"></stop>
            <stop stop-color="#D62127" offset="100%"></stop>
        </radialGradient>
    </defs>
    <g id="01_02.首页(鼠标悬停与点击下拉)" stroke="none" stroke-width="1" fill="none" fill-rule="evenodd" transform="translate(-474.000000, -2047.000000)">
        <g id="Group-31" transform="translate(0.000000, 1917.000000)" fill="url(#radialGradient-1)">
            <g id="Group-30" transform="translate(359.000000, 40.000000)">
                <g id="Group-27">
                    <path d="M126.397059,95.8223289 C126.707183,95.8223289 126.966036,95.9236194 127.173619,96.1262005 C127.381202,96.3287815 127.484994,96.582633 127.484994,96.8877551 C127.484994,97.3729492 127.252401,97.6980792 126.787215,97.8631452 L125.496699,98.3058223 L125.916867,99.5588235 C125.951881,99.6638655 125.969388,99.7814125 125.969388,99.9114646 C125.969388,100.206583 125.864346,100.461685 125.654262,100.676771 C125.444178,100.891857 125.191577,100.9994 124.896459,100.9994 C124.661365,100.9994 124.447529,100.931873 124.254952,100.796819 C124.062375,100.661765 123.928571,100.481693 123.853541,100.256603 L123.440876,99.0186074 L121.114946,99.8139256 L121.527611,101.044418 C121.567627,101.164466 121.587635,101.282013 121.587635,101.397059 C121.587635,101.692177 121.482593,101.947279 121.272509,102.162365 C121.062425,102.377451 120.807323,102.484994 120.507203,102.484994 C120.272109,102.484994 120.059524,102.417467 119.869448,102.282413 C119.679372,102.147359 119.546819,101.967287 119.471789,101.742197 L119.059124,100.519208 L117.911164,100.916867 C117.766106,100.961885 117.641056,100.984394 117.536014,100.984394 C117.230892,100.984394 116.977041,100.884354 116.77446,100.684274 C116.571879,100.484194 116.470588,100.231593 116.470588,99.9264706 C116.470588,99.6913765 116.539366,99.4787915 116.676921,99.2887155 C116.814476,99.0986394 116.993297,98.9660864 117.213385,98.8910564 L118.383854,98.4933974 L117.596038,96.144958 L116.42557,96.55012 C116.295518,96.5901361 116.17547,96.6101441 116.065426,96.6101441 C115.765306,96.6101441 115.512705,96.5088535 115.307623,96.3062725 C115.102541,96.1036915 115,95.8523409 115,95.5522209 C115,95.3171269 115.068778,95.1045418 115.206333,94.9144658 C115.343888,94.7243898 115.522709,94.5918367 115.742797,94.5168067 L116.920768,94.1191477 L116.523109,92.9261705 C116.483093,92.8061225 116.463085,92.6885754 116.463085,92.5735294 C116.463085,92.2734094 116.568127,92.0170568 116.778211,91.8044718 C116.988295,91.5918868 117.243397,91.4855942 117.543517,91.4855942 C117.778611,91.4855942 117.991196,91.5531213 118.181273,91.6881753 C118.371349,91.8232293 118.503902,92.0033013 118.578932,92.2283914 L118.984094,93.4288715 L121.310024,92.6410564 L120.904862,91.4405762 C120.864846,91.3205282 120.844838,91.2029812 120.844838,91.0879352 C120.844838,90.7928171 120.95113,90.5377151 121.163715,90.3226291 C121.376301,90.107543 121.630152,90 121.92527,90 C122.160364,90 122.3742,90.0687775 122.566777,90.2063325 C122.759354,90.3438876 122.893157,90.5227091 122.968187,90.7427971 L123.365846,91.9507803 L124.581333,91.5381153 C124.686375,91.5081033 124.793918,91.4930973 124.903962,91.4930973 C125.204082,91.4930973 125.460434,91.5918868 125.673019,91.7894658 C125.885604,91.9870448 125.991897,92.2333934 125.991897,92.5285114 C125.991897,92.7536015 125.916867,92.957433 125.766807,93.140006 C125.616747,93.3225791 125.431673,93.4513806 125.211585,93.5264106 L124.033613,93.9315726 L124.821429,96.302521 L126.051921,95.882353 C126.171969,95.842337 126.287015,95.822329 126.397059,95.822329 L126.397059,95.8223289 Z M120.439676,97.7881152 L122.765606,97.0003001 L121.977791,94.6368547 L119.651861,95.4396759 L120.439676,97.7881152 Z" id="01_01.contact_icon0402"></path>
                </g>
            </g>
        </g>
    </g>
</svg>