<?xml version="1.0" encoding="UTF-8"?>
<svg width="1920px" height="388px" viewBox="0 0 1920 388" version="1.1" xmlns="http://www.w3.org/2000/svg" xmlns:xlink="http://www.w3.org/1999/xlink">
    <!-- Generator: Sketch 48.2 (47327) - http://www.bohemiancoding.com/sketch -->
    <title>01_01.banner_wave</title>
    <desc>Created with Sketch.</desc>
    <defs></defs>
    <g id="01_01.首页(原状态)" stroke="none" stroke-width="1" fill="none" fill-rule="evenodd" transform="translate(0.000000, -152.000000)" opacity="0.0402513587">
        <g id="Group-29" fill="#3DADD9">
            <g id="Group-28" transform="translate(0.000000, 40.000000)">
                <g id="02.banner">
                    <g id="Group-56">
                        <path d="M7.10542736e-15,222.625 C51.7773437,222.546875 119.21875,246.609375 178.625,356.015625 C238.03125,465.421875 311.6875,465.421875 360,465.421875 C550.9375,465.421875 565.265625,112.621094 749.277344,112.621094 C925.167969,112.621094 928.652344,423.859375 1089.86328,423.859375 C1185.58594,423.859375 1182.9375,256.8125 1256.30469,256.25 C1329.67187,255.6875 1336.86328,413.84375 1410.38281,413.84375 C1481.82422,413.84375 1442.86719,191.921875 1549.65625,191.921875 C1656.44531,191.921875 1645.83203,413.84375 1731.29297,413.84375 C1816.75391,413.84375 1776.28125,222.625 1920,222.546875 C1920,259.40625 1920,351.746094 1920,499.566406 L7.10542736e-15,499.566406 L3.41847861e-14,294.90625 C1.61318803e-14,263.782552 7.10542736e-15,239.688802 7.10542736e-15,222.625 Z" id="01_01.banner_wave"></path>
                    </g>
                </g>
            </g>
        </g>
    </g>
</svg>