<?xml version="1.0" encoding="utf-8"?>
<!-- Generator: Adobe Illustrator 22.1.0, SVG Export Plug-In . SVG Version: 6.00 Build 0)  -->
<svg version="1.1" id="图层_1" xmlns="http://www.w3.org/2000/svg" xmlns:xlink="http://www.w3.org/1999/xlink" x="0px" y="0px"
	 viewBox="0 0 88 88" style="enable-background:new 0 0 88 88;" xml:space="preserve">
<style type="text/css">
	.st0{fill:#3DADD9;fill-opacity:2.000000e-02;stroke:#D6DEE7;stroke-width:2.2;}
	.st1{fill:#3DADD9;fill-opacity:4.000000e-02;stroke:#C7D1DD;stroke-width:2.2;}
	.st2{fill:#3DADD9;fill-opacity:6.000000e-02;stroke:#B2BFCF;stroke-width:2.2;}
	.st3{fill:#FAFAFA;}
	.st4{fill:#8FC8DE;}
</style>
<title>01_01.icon0301</title>
<desc>Created with Sketch.</desc>
<g id="Group-39" transform="translate(12.000000, 15.000000)">
	<path id="Path-10" class="st0" d="M32.8,18.5c-7.2,0-28.2,1.9-28.2,11.6c0,10.6,23.8,12.4,28.1,12.4C37.2,43,61,40.2,61,30.1
		C61,21,39.2,18.2,32.8,18.5z"/>
	<path id="Path-10-Copy" class="st1" d="M21.5,36.5c3.6,6.2,15.7,23.5,24.1,18.6c9.2-5.3-1.2-26.8-3.3-30.5
		C40.5,20.5,26.2,1.3,17.4,6.3C9.5,10.9,18.1,31.1,21.5,36.5z"/>
	<path id="Path-10-Copy-2" class="st2" d="M21.5,24.5C17.9,30.7,9,49.9,17.4,54.7c9.2,5.3,22.6-14.4,24.7-18.1
		c2.7-3.6,12.2-25.6,3.4-30.7C37.7,1.3,24.4,18.9,21.5,24.5z"/>
	<g id="Group-41" transform="translate(41.590909, 0.924242)">
		<circle id="Oval-6" class="st3" cx="4.6" cy="4.6" r="4.6"/>
		<circle id="Oval-6_1_" class="st4" cx="4.6" cy="4.6" r="2.8"/>
	</g>
	<g id="Group-41-Copy" transform="translate(0.000000, 26.803030)">
		<circle id="Oval-6_2_" class="st3" cx="4.6" cy="4.6" r="4.6"/>
		<circle id="Oval-6_3_" class="st4" cx="4.6" cy="4.6" r="2.8"/>
	</g>
	<g id="Group-41-Copy-2" transform="translate(41.590909, 49.909091)">
		<circle id="Oval-6_4_" class="st3" cx="4.6" cy="4.6" r="4.6"/>
		<circle id="Oval-6_5_" class="st4" cx="4.6" cy="4.6" r="2.8"/>
	</g>
</g>
</svg>
