<?xml version="1.0" encoding="UTF-8"?>
<svg width="14px" height="15px" viewBox="0 0 14 15" version="1.1" xmlns="http://www.w3.org/2000/svg" xmlns:xlink="http://www.w3.org/1999/xlink">
    <!-- Generator: Sketch 48.2 (47327) - http://www.bohemiancoding.com/sketch -->
    <title>01_01.search_icon02</title>
    <desc>Created with Sketch.</desc>
    <defs></defs>
    <g id="01_02.首页(鼠标悬停与点击下拉)" stroke="none" stroke-width="1" fill="none" fill-rule="evenodd" transform="translate(-1538.000000, -738.000000)">
        <g id="Group-36" transform="translate(0.000000, 540.000000)" fill="#3DADD9" fill-rule="nonzero">
            <g id="Group-35" transform="translate(360.000000, 190.000000)">
                <g id="Group-34" transform="translate(1020.000000, 0.000000)">
                    <g id="01_01.search_icon02" transform="translate(158.000000, 8.000000)">
                        <path d="M13.9195822,12.983812 L10.4104439,9.47467363 C11.2292428,8.53890339 11.6971279,7.25221932 11.6971279,5.84856397 C11.6971279,2.57336815 9.12375979,0 5.84856397,0 C2.57336815,0 0,2.57336815 0,5.84856397 C0,9.12375979 2.57336815,11.6971279 5.84856397,11.6971279 C7.25221932,11.6971279 8.53890339,11.2292428 9.47467363,10.4104439 L12.983812,13.9195822 C13.2177546,14.1535248 13.5686684,14.1535248 13.802611,13.9195822 C14.0365535,13.6856397 14.0365535,13.2177546 13.9195822,12.983812 Z M1.16971279,5.84856397 C1.16971279,3.27519582 3.27519582,1.16971279 5.84856397,1.16971279 C8.42193211,1.16971279 10.5274151,3.27519582 10.5274151,5.84856397 C10.5274151,8.42193211 8.42193211,10.5274151 5.84856397,10.5274151 C3.27519582,10.5274151 1.16971279,8.42193211 1.16971279,5.84856397 Z" id="Shape"></path>
                    </g>
                </g>
            </g>
        </g>
    </g>
</svg>