<?xml version="1.0" encoding="UTF-8"?>
<svg width="14px" height="14px" viewBox="0 0 14 14" version="1.1" xmlns="http://www.w3.org/2000/svg" xmlns:xlink="http://www.w3.org/1999/xlink">
    <!-- Generator: Sketch 48.2 (47327) - http://www.bohemiancoding.com/sketch -->
    <title>01_01.star01</title>
    <desc>Created with Sketch.</desc>
    <defs>
        <radialGradient cx="50%" cy="0%" fx="50%" fy="0%" r="100%" gradientTransform="translate(0.500000,0.000000),scale(0.999678,1.000000),rotate(90.000000),translate(-0.500000,-0.000000)" id="radialGradient-1">
            <stop stop-color="#3DD9CB" offset="0%"></stop>
            <stop stop-color="#3DADD9" offset="100%"></stop>
        </radialGradient>
    </defs>
    <g id="01_01.首页(原状态)" stroke="none" stroke-width="1" fill="none" fill-rule="evenodd" transform="translate(-381.000000, -831.000000)">
        <g id="Group-36" transform="translate(0.000000, 540.000000)" fill="url(#radialGradient-1)" fill-rule="nonzero">
            <g id="Group-35" transform="translate(360.000000, 190.000000)">
                <g id="Group-33" transform="translate(0.000000, 42.000000)">
                    <g id="Group-31" transform="translate(1.000000, 37.000000)">
                        <g id="Group-30" transform="translate(20.000000, 16.000000)">
                            <g id="01_01.star01" transform="translate(0.000000, 6.000000)">
                                <path d="M13.9704526,5.31030831 C13.9090177,5.1277642 13.7444655,4.99957995 13.5524292,4.98469341 L9.13020058,4.64188699 L7.44867869,0.314820159 C7.37693522,0.130179133 7.1991612,0.00854175196 7.00107428,0.00854175196 C6.80298735,0.00854175196 6.62522934,0.130179133 6.55346986,0.314820159 L4.87197996,4.64188699 L0.449719356,4.98469343 C0.257683093,4.99957997 0.0931308782,5.12776422 0.0316959218,5.31030832 C-0.0297390346,5.49285243 0.0238524804,5.69444489 0.167803656,5.82240505 L3.57078499,8.84701234 L2.50740635,13.4036359 C2.4628428,13.5945837 2.53884414,13.793439 2.69939461,13.9059844 C2.85996106,14.0185457 3.07282247,14.0221793 3.23711857,13.9151564 L7.00107431,11.4638407 L10.765046,13.9151564 C10.8448091,13.9670992 10.9360011,13.9929665 11.027097,13.9929665 C11.1236674,13.9929665 11.2201578,13.9638978 11.30277,13.9059683 C11.4633205,13.7934229 11.5393218,13.5945677 11.4947583,13.4036199 L10.4313796,8.84698032 L13.8343449,5.82240503 C13.9783121,5.69444488 14.0318716,5.49285242 13.9704526,5.31030831 Z" id="Shape"></path>
                            </g>
                        </g>
                    </g>
                </g>
            </g>
        </g>
    </g>
</svg>