<?xml version="1.0" encoding="UTF-8"?>
<svg width="15px" height="15px" viewBox="0 0 15 15" version="1.1" xmlns="http://www.w3.org/2000/svg" xmlns:xlink="http://www.w3.org/1999/xlink">
    <!-- Generator: Sketch 48.2 (47327) - http://www.bohemiancoding.com/sketch -->
    <title>01_01.notice</title>
    <desc>Created with Sketch.</desc>
    <defs></defs>
    <g id="01_01.首页(原状态)(换注册登录按钮与调整公告)" stroke="none" stroke-width="1" fill="none" fill-rule="evenodd" transform="translate(-842.000000, -12.000000)">
        <g id="Group-29" fill="#9EA7B3">
            <g id="Group-23">
                <g id="Group-13" transform="translate(842.000000, 12.000000)">
                    <g id="01_01.notice">
                        <path d="M14.0718053,3.91346065 C13.4889495,2.87264665 12.6562983,1.99836289 11.6987494,1.37387448 C11.5738517,1.29060936 11.4905866,1.24897681 11.3656889,1.24897681 C11.074261,1.24897681 10.8660982,1.49877217 10.8660982,1.79020008 C10.8660982,1.99836288 10.9493633,2.16489313 11.1575261,2.2897908 C12.9060936,3.37223737 13.9885402,5.37060025 13.9885402,7.49386082 C13.9885402,9.61712138 12.9060936,11.6154843 11.1575261,12.6979308 C11.0326284,12.781196 10.8660982,12.9477262 10.8660982,13.1975216 C10.8660982,13.4889495 11.074261,13.7387448 11.3656889,13.7387448 C11.4905866,13.7387448 11.5738517,13.6971123 11.6571168,13.6554797 C12.6562983,13.0309913 13.4889495,12.1567076 14.0718053,11.1158936 C14.6546612,9.99181443 14.9877216,8.74283762 14.9877216,7.49386082 C14.9877216,6.24488401 14.6546612,4.99590721 14.0718053,3.91346065 L14.0718053,3.91346065 Z M12.2399727,7.49386082 C12.2399727,6.74447473 12.0734425,6.03672122 11.6987494,5.37060026 C11.3656889,4.74611187 10.8660982,4.24652114 10.2832424,3.87182809 C10.2832424,3.87182809 10.1167121,3.78856297 9.99181443,3.78856297 C9.7003865,3.78856297 9.49222371,4.03835834 9.49222371,4.32978625 C9.49222371,4.53794905 9.57548883,4.7044793 9.74201908,4.78774441 C10.6579354,5.32896769 11.1991587,6.3697817 11.1991587,7.49386082 C11.1991587,8.61793993 10.6163028,9.65875394 9.65875394,10.1999772 C9.49222371,10.2832424 9.40895858,10.4497726 9.40895859,10.6579354 C9.40895859,10.9493633 9.61712138,11.1991587 9.90854931,11.1991587 C10.033447,11.1991587 10.1583447,11.1158936 10.1583447,11.1158936 C11.448954,10.40814 12.2399727,8.99263299 12.2399727,7.49386082 L12.2399727,7.49386082 Z M8.03508411,0.0832651174 C7.95181899,0.0416325587 7.86855387,0 7.78528874,0 C7.66039107,0 7.49386082,0.0416325587 7.4105957,0.124897676 C7.32733058,0.208162794 6.53631194,0.874283762 5.66202818,1.54040473 C4.07999089,2.78938154 3.62203273,2.99754433 3.53876761,3.03917689 L1.54040473,3.03917689 L0.499590719,3.03917689 C0.208162794,3.03917689 0,3.28897226 0,3.58040017 L0,11.448954 C0,11.740382 0.208162794,11.9901773 0.499590719,11.9901773 L3.91346065,11.9901773 C3.99672577,12.0318099 4.45468393,12.2399727 5.82855842,13.4473169 C6.28651659,13.8636425 6.82773986,14.3632332 7.36896314,14.8211914 L7.4105957,14.862824 C7.53549338,14.9877216 7.66039107,15.0293542 7.8269213,15.0293542 C7.91018642,15.0293542 7.99345154,15.0293542 8.07671667,14.9877216 C8.28487946,14.862824 8.45140971,14.6546612 8.45140971,14.4048658 L8.45140971,11.740382 C8.45140971,11.6987494 8.40977715,0.832651204 8.40977715,0.707753527 C8.36814459,0.374693043 8.24324692,0.16653025 8.03508411,0.0832651174 L8.03508411,0.0832651174 Z M7.36896314,11.5738517 L7.36896314,13.2807867 C7.11916777,13.0309913 6.86937242,12.8228285 6.61957705,12.6146657 C4.74611185,10.9909959 4.24652112,10.8660982 3.91346065,10.8660982 L1.37387448,10.8660982 C1.08244656,10.8660982 0.999181438,10.7828331 0.999181438,10.4497726 L0.999181438,4.45468393 C0.999181438,4.20488856 1.040814,4.12162344 1.24897681,4.12162346 L3.53876761,4.12162346 C3.87182809,4.12162346 4.32978625,3.99672578 6.41141426,2.37305593 C6.74447475,2.12326057 7.07753523,1.87346522 7.36896314,1.62366985 L7.36896314,11.5738517 L7.36896314,11.5738517 Z" id="Shape"></path>
                    </g>
                </g>
            </g>
        </g>
    </g>
</svg>