<?xml version="1.0" encoding="utf-8"?>
<!-- Generator: Adobe Illustrator 22.1.0, SVG Export Plug-In . SVG Version: 6.00 Build 0)  -->
<svg version="1.1" id="图层_1" xmlns="http://www.w3.org/2000/svg" xmlns:xlink="http://www.w3.org/1999/xlink" x="0px" y="0px"
	 viewBox="0 0 88 88" style="enable-background:new 0 0 88 88;" xml:space="preserve">
<style type="text/css">
	.st0{fill:#3DADD9;fill-opacity:6.000000e-02;}
	.st1{fill:none;stroke:#B2BFCF;stroke-width:2.2;}
	.st2{fill:none;stroke:#B2BFCF;stroke-width:2.2;stroke-linecap:round;}
	.st3{fill:none;stroke:#49CCFF;stroke-width:2;stroke-miterlimit:10;enable-background:new    ;}
</style>
<title>01_01.icon0401</title>
<desc>Created with Sketch.</desc>
<path id="Rectangle-24" class="st0" d="M17,22.9h53c1.1,0,2,0.9,2,2v28.2c0,1.1-0.9,2-2,2H17c-1.1,0-2-0.9-2-2V24.9
	C15,23.8,15.9,22.9,17,22.9z"/>
<path id="Rectangle-23" class="st1" d="M19.7,22h47.5c2.1,0,3.8,1.7,3.8,3.8v32.8c0,2.1-1.7,3.8-3.8,3.8H19.7
	c-2.1,0-3.8-1.7-3.8-3.8V25.8C15.9,23.7,17.6,22,19.7,22z"/>
<path id="Path-11" class="st1" d="M15,55.6h56.1"/>
<path id="Path-12" class="st1" d="M44,62.5v7.4"/>
<path id="Path-13" class="st2" d="M33.4,70.3h20.2"/>
<polyline class="st3" points="23,41 34.8,41 39.8,33 43.5,46.4 47,40.9 66,41 "/>
</svg>
