<?xml version="1.0" encoding="UTF-8"?>
<svg width="16px" height="16px" viewBox="0 0 16 16" version="1.1" xmlns="http://www.w3.org/2000/svg" xmlns:xlink="http://www.w3.org/1999/xlink">
    <!-- Generator: Sketch 48.2 (47327) - http://www.bohemiancoding.com/sketch -->
    <title>02_04.day_and_night</title>
    <desc>Created with Sketch.</desc>
    <defs></defs>
    <g id="02_04.交易(白-未登录-K线图-原状态)" stroke="none" stroke-width="1" fill="none" fill-rule="evenodd" transform="translate(-1528.000000, -105.000000)">
        <g id="02_04.day_and_night" transform="translate(1528.000000, 105.000000)" fill="#8A8A8A" fill-rule="nonzero">
            <path d="M7.98723404,15.9914894 C3.80212766,15.9914894 0.370212766,12.7808511 0.0106382979,8.69148936 C0.0319148936,8.29574468 0.353191489,7.98085106 0.753191489,7.98085106 C0.982978723,7.98085106 1.1893617,8.08297872 1.32553191,8.24468085 C1.32978723,8.25106383 1.33617021,8.24680851 1.33617021,8.22978723 C2.2212766,9.17021277 3.47446809,9.75957447 4.87021277,9.75957447 C7.57446809,9.75957447 9.76595745,7.56808511 9.76595745,4.86382979 C9.76595745,3.45744681 9.17021277,2.20212766 8.2212766,1.31489362 C8.22340426,1.31276596 8.23191489,1.31276596 8.22765957,1.30851064 C8.0787234,1.17021277 7.98510638,0.974468085 7.98510638,0.753191489 C7.98510638,0.34893617 8.30212766,0.0276595745 8.70212766,0.00212765957 C12.7893617,0.365957447 15.9978723,3.79574468 15.9978723,7.98085106 C15.9978723,12.406383 12.412766,15.9914894 7.98723404,15.9914894 Z" id="Shape"></path>
        </g>
    </g>
</svg>