<?xml version="1.0" encoding="UTF-8"?>
<svg width="20px" height="20px" viewBox="0 0 20 20" version="1.1" xmlns="http://www.w3.org/2000/svg" xmlns:xlink="http://www.w3.org/1999/xlink">
    <!-- Generator: Sketch 48.2 (47327) - http://www.bohemiancoding.com/sketch -->
    <title>02_01.day_and_night</title>
    <desc>Created with Sketch.</desc>
    <defs></defs>
    <g id="02_01.交易(黑-未登录-K线图-原状态)" stroke="none" stroke-width="1" fill="none" fill-rule="evenodd" transform="translate(-1526.000000, -103.000000)">
        <g id="02_01.day_and_night" transform="translate(1526.000000, 103.000000)" fill="#8EA0B5" fill-rule="nonzero">
            <path d="M5.280387,3.82347963 L3.64739977,2.19049241 L2.28685131,3.55106973 L3.91983853,5.18405695 L5.280387,3.82347963 Z M2.73990561,8.99329244 L0.0188086883,8.99329244 L0.0188086883,10.8068663 L2.73990561,10.8068663 L2.73990561,8.99329244 Z M10.9031964,0.0142152891 L9.08962248,0.0142152891 L9.08962248,2.64369103 L10.9031964,2.64369103 L10.9031964,0.0142152891 Z M17.7059964,3.55106973 L16.3454479,2.19049241 L14.7124318,3.82347963 L15.9827159,5.09364815 L17.7059964,3.55106973 Z M14.7124318,15.9780358 L16.3454479,17.6096663 L17.6169732,16.3407679 L15.9827158,14.7078962 L14.7124318,15.9780358 Z M17.2528844,10.8068663 L19.974039,10.8068663 L19.974039,8.99329244 L17.2528844,8.99329244 L17.2528844,10.8068663 Z M9.99711664,4.45723605 C7.00369642,4.45723605 4.55489394,6.90730863 4.55489394,9.89948762 C4.55489394,12.8928212 7.00369642,15.3416237 9.99711664,15.3416237 C12.9905657,15.3416237 15.4392528,12.8928212 15.4392528,9.89948762 C15.4392528,6.90730863 12.9905657,4.45723605 9.99711664,4.45723605 Z M9.08962248,19.7873002 L10.9031964,19.7873002 L10.9031964,17.1565543 L9.08962248,17.1565543 L9.08962248,19.7873002 Z M2.28685131,16.249089 L3.64739977,17.6096375 L5.280387,15.9780069 L4.01148858,14.7078384 L2.28685131,16.249089 Z" id="Shape"></path>
        </g>
    </g>
</svg>