<?xml version="1.0" encoding="UTF-8"?>
<svg width="14px" height="17px" viewBox="0 0 14 17" version="1.1" xmlns="http://www.w3.org/2000/svg" xmlns:xlink="http://www.w3.org/1999/xlink">
    <!-- Generator: Sketch 48.2 (47327) - http://www.bohemiancoding.com/sketch -->
    <title>06_03.copy_icon</title>
    <desc>Created with Sketch.</desc>
    <defs></defs>
    <g id="06_03.资产管理(充值)" stroke="none" stroke-width="1" fill="none" fill-rule="evenodd" transform="translate(-794.000000, -384.000000)">
        <g id="Group-13" transform="translate(390.000000, 303.000000)" fill="#FFFFFF" fill-rule="nonzero">
            <g id="Group-24" transform="translate(30.000000, 45.000000)">
                <g id="Group-11" transform="translate(365.000000, 30.000000)">
                    <g id="06_03.copy_icon" transform="translate(9.000000, 6.000000)">
                        <path d="M9.48917431,16.359633 L1.31596329,16.359633 C0.564403655,16.359633 0.000733933945,15.7959633 0.000733933945,15.0444037 L0.000733933945,4.71045873 C0.000733933945,3.95889909 0.564403655,3.39522937 1.31596329,3.39522937 L9.48917431,3.39522937 C10.2407339,3.39522937 10.8044037,3.95889909 10.8044037,4.71045873 L10.8044037,15.0444037 C10.8983486,15.2322936 10.8044037,15.6080734 10.5225688,15.8899083 C10.3346789,16.1717431 9.86495412,16.359633 9.48917431,16.359633 Z M1.31596329,4.3346789 C1.12807338,4.3346789 0.940183486,4.52256881 0.940183486,4.71045873 L0.940183486,15.0444037 C0.940183486,15.2322936 1.1280734,15.4201835 1.31596329,15.4201835 L9.48917431,15.4201835 C9.58311927,15.4201835 9.77100919,15.3262385 9.86495412,15.2322936 C9.95889908,15.1383486 9.86495412,15.1383486 9.86495412,15.1383486 L9.86495412,4.71045873 C9.86495412,4.52256881 9.6770642,4.33467892 9.48917431,4.3346789 L1.31596329,4.3346789 Z" id="Shape"></path>
                        <path d="M12.6833027,12.9776147 L12.4954128,12.9776147 C12.213578,12.9776147 12.0256881,12.7897248 12.0256881,12.5078899 C12.0256881,12.2260551 12.213578,12.0381652 12.4954128,12.0381651 L12.6833027,12.0381651 C12.8711927,12.0381651 13.0590826,11.8502752 13.0590826,11.6623853 L13.0590826,1.32844037 C13.0590826,1.14055046 12.8711927,0.952660569 12.6833027,0.952660543 L4.51009175,0.952660543 C4.32220184,0.952660543 4.13431195,1.14055046 4.13431192,1.32844037 L4.13431192,1.70422018 C4.13431192,1.98605505 3.94642201,2.17394494 3.66458716,2.17394494 C3.38275231,2.17394494 3.1948624,1.98605503 3.1948624,1.70422018 L3.1948624,1.32844037 C3.1948624,0.576880738 3.75853212,0.0132110165 4.51009175,0.0132110165 L12.6833027,0.0132110165 C13.4348624,0.0132110165 13.9985321,0.576880738 13.9985321,1.32844037 L13.9985321,11.6623853 C13.9985321,12.413945 13.4348624,12.9776147 12.6833027,12.9776147 Z" id="Shape"></path>
                        <path d="M7.79816515,8.37431193 L3.10091744,8.37431193 C2.81908257,8.37431193 2.63119268,8.18642201 2.63119265,7.90458716 C2.63119262,7.62275232 2.81908257,7.4348624 3.10091744,7.43486237 L7.79816515,7.43486237 C8.08000002,7.43486237 8.26788991,7.62275229 8.26788991,7.90458716 C8.26788991,8.18642204 8.08,8.37431193 7.79816515,8.37431193 Z M7.79816515,10.253211 L3.10091744,10.253211 C2.81908257,10.253211 2.63119268,10.0653211 2.63119265,9.78348624 C2.63119262,9.50165139 2.81908257,9.31376148 3.10091744,9.31376148 L7.79816515,9.31376148 C8.08000002,9.31376148 8.26788991,9.50165139 8.26788991,9.78348624 C8.26788991,10.0653211 8.08,10.253211 7.79816515,10.253211 Z M7.79816515,12.1321101 L3.10091744,12.1321101 C2.81908257,12.1321101 2.63119268,11.9442202 2.63119265,11.6623853 C2.63119262,11.3805505 2.81908257,11.1926606 3.10091744,11.1926606 L7.79816515,11.1926606 C8.08000002,11.1926606 8.26788991,11.3805505 8.26788991,11.6623853 C8.26788991,11.9442202 8.08,12.1321101 7.79816515,12.1321101 Z" id="Shape"></path>
                    </g>
                </g>
            </g>
        </g>
    </g>
</svg>