<?xml version="1.0" encoding="UTF-8"?>
<svg width="18px" height="23px" viewBox="0 0 18 23" version="1.1" xmlns="http://www.w3.org/2000/svg" xmlns:xlink="http://www.w3.org/1999/xlink">
    <!-- Generator: Sketch 48.2 (47327) - http://www.bohemiancoding.com/sketch -->
    <title>06_04.google</title>
    <desc>Created with Sketch.</desc>
    <defs></defs>
    <g id="06_04.资产管理(提币01-安全认证)" stroke="none" stroke-width="1" fill="none" fill-rule="evenodd" transform="translate(-826.000000, -587.000000)">
        <g id="Group-24" transform="translate(710.000000, 366.000000)" fill="#FFFFFF" fill-rule="nonzero">
            <g id="Group-16" transform="translate(80.000000, 211.000000)">
                <g id="06_04.google" transform="translate(36.000000, 10.000000)">
                    <path d="M17.3829699,3.14558671 C14.3347179,3.14558671 11.4991346,2.01135342 9.51422638,0.168224289 C9.23066804,-0.0444444444 8.80533056,-0.0444444444 8.52177224,0.168224289 C6.67864313,2.08224298 3.77217031,3.14558669 0.723918311,3.14558671 C0.3694704,3.14558671 0.0150224889,3.42914504 0.0150224889,3.85448251 L0.0150224889,12.5030114 C0.0150224889,15.1968155 1.43281411,17.81973 3.77217031,19.3793008 L8.6635514,22.569332 C8.80533056,22.6402215 8.87622013,22.7111111 9.01799931,22.7111111 C9.15977849,22.7111111 9.23066804,22.6402215 9.30155762,22.6402215 L14.1929387,19.3793008 C16.5322949,17.81973 17.9500865,15.1968155 17.9500865,12.5030114 L17.9500865,3.78359293 C18.0918657,3.42914502 17.8083074,3.14558671 17.3829699,3.14558671 Z M16.8158532,6.61917618 L16.8158532,12.4321218 C16.8158532,14.7005884 15.6107304,16.8272759 13.6258221,18.1032883 L9.08888889,21.0806507 L4.55195569,18.1032883 C2.56704742,16.8272759 1.36192453,14.7005884 1.36192453,12.4321218 L1.36192453,4.49248876 C4.33928693,4.3507096 7.03309102,3.35825547 9.08888889,1.58601593 C11.0737972,3.35825547 13.8384908,4.27982002 16.8158532,4.49248876 L16.8158532,6.61917618 Z" id="Shape"></path>
                    <path d="M5.47352024,9.73831776 C5.26085151,9.45475942 4.76462442,9.38386984 4.48106611,9.5965386 C4.19750778,9.80920733 4.1266182,10.3054344 4.33928696,10.5889927 L6.89131187,13.7790239 C6.96220144,13.8499135 7.1748702,13.9916926 7.31664936,13.9916926 L7.38753893,13.9916926 C7.52931809,13.9916926 7.67109727,13.9916926 7.883766,13.8499135 L13.7676012,9.24209069 C14.0511596,9.02942196 14.0511596,8.53319487 13.8384908,8.24963656 C13.6258221,8.03696782 13.129595,7.96607822 12.8460367,8.17874698 L7.45842851,12.4321218 L5.47352024,9.73831776 Z" id="Shape"></path>
                </g>
            </g>
        </g>
    </g>
</svg>