<?xml version="1.0" encoding="UTF-8"?>
<svg width="60px" height="51px" viewBox="0 0 60 51" version="1.1" xmlns="http://www.w3.org/2000/svg" xmlns:xlink="http://www.w3.org/1999/xlink">
    <!-- Generator: Sketch 48.2 (47327) - http://www.bohemiancoding.com/sketch -->
    <title>06_04.notice</title>
    <desc>Created with Sketch.</desc>
    <defs></defs>
    <g id="06_04.资产管理(提币01-安全认证)" stroke="none" stroke-width="1" fill="none" fill-rule="evenodd" transform="translate(-929.000000, -426.000000)">
        <g id="Group-24" transform="translate(710.000000, 366.000000)" fill="#FF4B4B" fill-rule="nonzero">
            <g id="06_04.notice" transform="translate(219.000000, 60.000000)">
                <path d="M59.8483517,49.40625 L30.910991,0.53125 C30.6966402,0.159375 30.3215262,0 30,0 C29.6784738,0 29.3033598,0.159375 29.089009,0.53125 L0.151648344,49.40625 C-0.277053296,50.096875 0.258823754,51 1.06263933,51 L58.9373607,51 C59.7411762,51 60.2770533,50.096875 59.8483517,49.40625 Z M6.68934835,46.75 L30,7.384375 L53.3106517,46.75 L6.68934835,46.75 Z M27.8564918,38.25 L32.1435082,38.25 L32.1435082,42.5 L27.8564918,42.5 L27.8564918,38.25 Z M27.8564918,17 L32.1435082,17 L32.1435082,34 L27.8564918,34 L27.8564918,17 Z" id="Shape"></path>
            </g>
        </g>
    </g>
</svg>