<?xml version="1.0" encoding="UTF-8"?>
<svg width="16px" height="21px" viewBox="0 0 16 21" version="1.1" xmlns="http://www.w3.org/2000/svg" xmlns:xlink="http://www.w3.org/1999/xlink">
    <!-- Generator: Sketch 48.2 (47327) - http://www.bohemiancoding.com/sketch -->
    <title>06_04.phone</title>
    <desc>Created with Sketch.</desc>
    <defs></defs>
    <g id="06_04.资产管理(提币01-安全认证)" stroke="none" stroke-width="1" fill="none" fill-rule="evenodd" transform="translate(-1007.000000, -588.000000)">
        <g id="Group-24" transform="translate(710.000000, 366.000000)" fill="#FFFFFF" fill-rule="nonzero">
            <g id="Group-16-Copy" transform="translate(260.000000, 211.000000)">
                <g id="06_04.phone" transform="translate(37.000000, 11.000000)">
                    <path d="M8,18.8786441 C8.55538983,18.8786441 9.04135593,18.4230508 9.04135593,17.9023729 C9.04135593,17.3816949 8.55538983,16.9261017 8,16.9261017 C7.44461017,16.9261017 6.95864407,17.3816949 6.95864407,17.9023729 C6.95864407,18.4230508 7.44461017,18.8786441 8,18.8786441 Z M13.2067797,0.00406779661 L2.79322034,0.00406779661 C1.26589831,0.00406779661 0.0162711864,1.17559322 0.0162711864,2.60745763 L0.0162711864,18.2277966 C0.0162711864,19.659661 1.26589831,20.8311864 2.79322034,20.8311864 L13.2067797,20.8311864 C14.7341017,20.8311864 15.9837288,19.659661 15.9837288,18.2277966 L15.9837288,2.60745763 C15.9837288,1.17559322 14.7341017,0.00406779661 13.2067797,0.00406779661 Z M14.5952542,18.2277966 C14.5952542,18.9437288 13.9704407,19.5294915 13.2067797,19.5294915 L2.79322034,19.5294915 C2.02955932,19.5294915 1.40474576,18.9437288 1.40474576,18.2277966 L1.40474576,16.2752542 L14.5952542,16.2752542 L14.5952542,18.2277966 Z M14.5952542,14.9735593 L1.40474576,14.9735593 L1.40474576,4.56 L14.5952542,4.56 L14.5952542,14.9735593 Z M14.5952542,3.25830508 L1.40474576,3.25830508 L1.40474576,2.60745763 C1.40474576,1.89152542 2.02955932,1.30576271 2.79322034,1.30576271 L13.2067797,1.30576271 C13.9704407,1.30576271 14.5952542,1.89152542 14.5952542,2.60745763 L14.5952542,3.25830508 Z" id="Shape"></path>
                </g>
            </g>
        </g>
    </g>
</svg>