<?xml version="1.0" encoding="UTF-8"?>
<svg width="50px" height="40px" viewBox="0 0 50 40" version="1.1" xmlns="http://www.w3.org/2000/svg" xmlns:xlink="http://www.w3.org/1999/xlink">
    <!-- Generator: Sketch 48.2 (47327) - http://www.bohemiancoding.com/sketch -->
    <title>07_08.copy_button01</title>
    <desc>Created with Sketch.</desc>
    <defs>
        <rect id="path-1" x="0" y="0" width="50" height="40" rx="2"></rect>
    </defs>
    <g id="07_08.个人中心(我的推荐01)" stroke="none" stroke-width="1" fill="none" fill-rule="evenodd" transform="translate(-1050.000000, -282.000000)">
        <g id="Group-16" transform="translate(390.000000, 243.000000)">
            <g id="Group-11" transform="translate(137.000000, 6.000000)">
                <g id="07_08.copy_button01" transform="translate(523.000000, 33.000000)">
                    <g id="Rectangle-9">
                        <use fill="#FFFFFF" fill-rule="evenodd" xlink:href="#path-1"></use>
                        <rect stroke="#3DADD9" stroke-width="1" x="0.5" y="0.5" width="49" height="39" rx="2"></rect>
                    </g>
                    <g id="复制-(2)" transform="translate(17.000000, 12.000000)" fill="#3DADD9">
                        <path d="M1.23076923,16 L13.5384615,16 L13.5384615,17.2307692 L1.23076923,17.2307692 L1.23076923,16 L1.23076923,16 L1.23076923,16 Z M0,2.46153846 L1.23076923,2.46153846 L1.23076923,17.2307692 L0,17.2307692 L0,2.46153846 L0,2.46153846 L0,2.46153846 Z M12.3076923,0 L3.69230769,0 C2.46153846,0 2.46153846,1.26153846 2.46153846,1.26153846 L2.46153846,13.5384615 C2.46153846,14.7692308 3.69230769,14.7692308 3.69230769,14.7692308 L14.7692308,14.7692308 C16,14.7692308 16,13.5384615 16,13.5384615 L16,3.69230769 L12.3076923,0 L12.3076923,0 L12.3076923,0 Z M4.92307692,8.61538462 L13.5384615,8.61538462 L13.5384615,9.84615385 L4.92307692,9.84615385 L4.92307692,8.61538462 L4.92307692,8.61538462 L4.92307692,8.61538462 Z M4.92307692,6.15384615 L13.5384615,6.15384615 L13.5384615,7.38461538 L4.92307692,7.38461538 L4.92307692,6.15384615 L4.92307692,6.15384615 L4.92307692,6.15384615 Z M4.92307692,11.0769231 L13.5384615,11.0769231 L13.5384615,12.3076923 L4.92307692,12.3076923 L4.92307692,11.0769231 L4.92307692,11.0769231 L4.92307692,11.0769231 Z M12.3076923,3.69230769 L12.3076923,1.23076923 L14.7692308,3.69230769 L12.3076923,3.69230769 L12.3076923,3.69230769 L12.3076923,3.69230769 Z" id="Shape"></path>
                    </g>
                </g>
            </g>
        </g>
    </g>
</svg>