<?xml version="1.0" encoding="UTF-8"?>
<svg width="21px" height="16px" viewBox="0 0 21 16" version="1.1" xmlns="http://www.w3.org/2000/svg" xmlns:xlink="http://www.w3.org/1999/xlink">
    <!-- Generator: Sketch 48.2 (47327) - http://www.bohemiancoding.com/sketch -->
    <title>07_01.icon02</title>
    <desc>Created with Sketch.</desc>
    <defs></defs>
    <g id="07_01.个人中心(账户信息)" stroke="none" stroke-width="1" fill="none" fill-rule="evenodd" transform="translate(-390.000000, -435.000000)">
        <g id="Group-13" transform="translate(361.000000, 322.000000)" fill="#92A3B7" fill-rule="nonzero">
            <g id="Group-5" transform="translate(29.000000, 113.000000)">
                <g id="07_01.icon02">
                    <path d="M17.71875,0 L3.28125,0 C1.47196875,0 0,1.47196875 0,3.28125 L0,12.46875 C0,14.2780312 1.47196875,15.75 3.28125,15.75 L17.71875,15.75 C19.5280313,15.75 21,14.2780312 21,12.46875 L21,3.28125 C21,1.47196875 19.5280313,0 17.71875,0 Z M19.6875,12.46875 C19.6875,13.5541875 18.8041875,14.4375 17.71875,14.4375 L3.28125,14.4375 C2.1958125,14.4375 1.3125,13.5541875 1.3125,12.46875 L1.3125,3.28125 C1.3125,2.1958125 2.1958125,1.3125 3.28125,1.3125 L17.71875,1.3125 C18.8041875,1.3125 19.6875,2.1958125 19.6875,3.28125 L19.6875,12.46875 Z" id="Shape"></path>
                    <path d="M7.875,3.9375 L3.28125,3.9375 C2.919,3.9375 2.625,4.2315 2.625,4.59375 C2.625,4.956 2.919,5.25 3.28125,5.25 L7.875,5.25 C8.23725,5.25 8.53125,4.956 8.53125,4.59375 C8.53125,4.2315 8.23725,3.9375 7.875,3.9375 Z" id="Shape"></path>
                    <path d="M7.875,7.21875 L3.28125,7.21875 C2.919,7.21875 2.625,7.51275 2.625,7.875 C2.625,8.23725 2.919,8.53125 3.28125,8.53125 L7.875,8.53125 C8.23725,8.53125 8.53125,8.23725 8.53125,7.875 C8.53125,7.51275 8.23725,7.21875 7.875,7.21875 Z" id="Shape"></path>
                    <path d="M7.875,10.5 L3.28125,10.5 C2.919,10.5 2.625,10.794 2.625,11.15625 C2.625,11.5185 2.919,11.8125 3.28125,11.8125 L7.875,11.8125 C8.23725,11.8125 8.53125,11.5185 8.53125,11.15625 C8.53125,10.794 8.23725,10.5 7.875,10.5 Z" id="Shape"></path>
                    <path d="M16.5788438,8.203125 C17.2869375,7.6006875 17.7463125,6.71475 17.7463125,5.714625 C17.7463125,3.90534375 16.2743438,2.433375 14.4650625,2.433375 C12.6557813,2.433375 11.1838125,3.90534375 11.1838125,5.714625 C11.1838125,6.71475 11.6431875,7.6006875 12.3512813,8.203125 C10.8799688,8.969625 9.8713125,10.5065625 9.8713125,12.277125 C9.8713125,12.6400312 10.1653125,12.933375 10.5275625,12.933375 C10.8904688,12.933375 11.1838125,12.6400312 11.1838125,12.277125 C11.1838125,10.4678437 12.6557813,8.995875 14.4650625,8.995875 C16.2743438,8.995875 17.7463125,10.4678437 17.7463125,12.277125 C17.7463125,12.6400312 18.0396563,12.933375 18.4025625,12.933375 C18.7654688,12.933375 19.0588125,12.6400312 19.0588125,12.277125 C19.0588125,10.5065625 18.0501563,8.969625 16.5788438,8.203125 Z M14.4650625,7.683375 C13.379625,7.683375 12.4963125,6.8000625 12.4963125,5.714625 C12.4963125,4.6291875 13.379625,3.745875 14.4650625,3.745875 C15.5505,3.745875 16.4338125,4.6291875 16.4338125,5.714625 C16.4338125,6.8000625 15.5505,7.683375 14.4650625,7.683375 Z" id="Shape"></path>
                </g>
            </g>
        </g>
    </g>
</svg>