<?xml version="1.0" encoding="UTF-8"?>
<svg width="15px" height="13px" viewBox="0 0 15 13" version="1.1" xmlns="http://www.w3.org/2000/svg" xmlns:xlink="http://www.w3.org/1999/xlink">
    <!-- Generator: Sketch 48.2 (47327) - http://www.bohemiancoding.com/sketch -->
    <title>07_01.notice</title>
    <desc>Created with Sketch.</desc>
    <defs></defs>
    <g id="07_01.个人中心(账户信息)" stroke="none" stroke-width="1" fill="none" fill-rule="evenodd" transform="translate(-629.000000, -217.000000)">
        <g id="07_01.notice" transform="translate(629.000000, 217.000000)" fill="#FF4B4B" fill-rule="nonzero">
            <path d="M14.9598214,12.4553571 L7.72767857,0.133928571 C7.67410714,0.0401785714 7.58035714,0 7.5,0 C7.41964286,0 7.32589286,0.0401785714 7.27232143,0.133928571 L0.0401785714,12.4553571 C-0.0669642857,12.6294643 0.0669642857,12.8571429 0.267857143,12.8571429 L14.7321429,12.8571429 C14.9330357,12.8571429 15.0669643,12.6294643 14.9598214,12.4553571 Z M1.67410714,11.7857143 L7.5,1.86160714 L13.3258929,11.7857143 L1.67410714,11.7857143 Z M6.96428571,9.64285714 L8.03571429,9.64285714 L8.03571429,10.7142857 L6.96428571,10.7142857 L6.96428571,9.64285714 Z M6.96428571,4.28571429 L8.03571429,4.28571429 L8.03571429,8.57142857 L6.96428571,8.57142857 L6.96428571,4.28571429 Z" id="Shape"></path>
        </g>
    </g>
</svg>