<?xml version="1.0" encoding="UTF-8"?>
<svg width="40px" height="40px" viewBox="0 0 40 40" version="1.1" xmlns="http://www.w3.org/2000/svg" xmlns:xlink="http://www.w3.org/1999/xlink">
    <!-- Generator: Sketch 48.2 (47327) - http://www.bohemiancoding.com/sketch -->
    <title>07_01.portrait</title>
    <desc>Created with Sketch.</desc>
    <defs></defs>
    <g id="07_01.个人中心(账户信息)" stroke="none" stroke-width="1" fill="none" fill-rule="evenodd" transform="translate(-390.000000, -213.000000)">
        <g id="07_01.portrait" transform="translate(390.000000, 213.000000)">
            <circle id="Oval-4" fill="#CDD7E2" cx="20" cy="20" r="20"></circle>
            <path d="M19.6597751,19.7026211 C23.0273348,19.7026211 25.7675117,17.0035528 25.7673274,13.6846554 C25.7673274,10.3659423 23.0273578,7.66666667 19.6597981,7.66666667 C16.2922614,7.66666667 13.5522918,10.3668865 13.5522918,13.6846554 C13.5522688,17.0025855 16.2922384,19.7026211 19.6597751,19.7026211 Z M22.1766762,20.2821246 L17.6004107,20.2821246 C13.3478086,20.2821246 9.88888889,23.6878911 9.88888889,27.8754335 L9.88888889,28.3261534 C9.88888889,30.5152917 13.2924445,30.5152917 17.6004107,30.5152917 L22.1766762,30.5152917 C26.3151417,30.5152917 29.8888889,30.5152917 29.8888889,28.3261534 L29.8888889,27.8754335 C29.8888428,23.6888353 26.4293704,20.2821246 22.1766762,20.2821246 Z" id="Shape" fill="#92A3B7" fill-rule="nonzero"></path>
        </g>
    </g>
</svg>