<?xml version="1.0" encoding="UTF-8"?>
<svg width="18px" height="23px" viewBox="0 0 18 23" version="1.1" xmlns="http://www.w3.org/2000/svg" xmlns:xlink="http://www.w3.org/1999/xlink">
    <!-- Generator: Sketch 48.2 (47327) - http://www.bohemiancoding.com/sketch -->
    <title>07_07.app_store</title>
    <desc>Created with Sketch.</desc>
    <defs></defs>
    <g id="07_07.个人中心(谷歌认证)" stroke="none" stroke-width="1" fill="none" fill-rule="evenodd" transform="translate(-419.000000, -419.000000)">
        <g id="Group-15" transform="translate(390.000000, 303.000000)" fill="#3DADD9">
            <g id="iphone" transform="translate(0.000000, 106.000000)">
                <g id="Group-4" transform="translate(29.000000, 10.000000)">
                    <g id="07_07.app_store">
                        <path d="M12.2937017,3.5598232 C13.5204862,2.13096133 13.409105,0.0163093923 13.409105,0.0163093923 C13.409105,0.0163093923 11.3151381,0.210430939 10.0891492,1.64088398 C8.86236464,3.06735912 8.97374586,5.18598895 8.97374586,5.18598895 C8.97374586,5.18598895 11.0669171,4.99027624 12.2937017,3.5598232 L12.2937017,3.5598232 L12.2937017,3.5598232 Z M14.953326,11.8052155 C14.953326,10.0016354 15.9478011,8.43036464 17.4140552,7.61409945 C16.3893481,6.13432044 14.5865635,5.31487293 13.3343204,5.31487293 C11.8282873,5.31487293 9.75341436,6.37856354 9.15116022,6.37856354 C8.51151381,6.37856354 7.17096133,5.41670718 5.38488398,5.39045304 C3.90987845,5.36897238 1.43164641,6.22660773 0.564464088,8.77087293 C-0.301922652,11.3127514 -0.261348066,14.9883315 1.55177901,18.4029613 C3.00609945,21.1373702 4.29175691,22.2448177 5.53524862,22.2448177 C6.78033149,22.2448177 8.24738122,21.294895 9.4160884,21.294895 C10.5832044,21.294895 11.6763315,22.2448177 12.8824309,22.2448177 C14.0861436,22.2448177 15.3296354,21.2559116 16.2334144,19.8906961 C17.1371934,18.5222983 17.967779,16.3973039 17.967779,16.3973039 C17.967779,16.3973039 17.9725525,16.3416133 17.9844862,16.2604641 C16.2111381,15.5683094 14.953326,13.8355359 14.953326,11.8052155 L14.953326,11.8052155 L14.953326,11.8052155 Z" id="Shape"></path>
                    </g>
                </g>
            </g>
        </g>
    </g>
</svg>