<?xml version="1.0" encoding="UTF-8"?>
<svg width="5px" height="8px" viewBox="0 0 5 8" version="1.1" xmlns="http://www.w3.org/2000/svg" xmlns:xlink="http://www.w3.org/1999/xlink">
    <!-- Generator: Sketch 48.2 (47327) - http://www.bohemiancoding.com/sketch -->
    <title>07_02.return</title>
    <desc>Created with Sketch.</desc>
    <defs></defs>
    <g id="07_02.个人中心(修改登录密码01)" stroke="none" stroke-width="1" fill="none" fill-rule="evenodd" transform="translate(-391.000000, -133.000000)">
        <g id="07_02.return" transform="translate(393.500000, 137.000000) scale(-1, 1) translate(-393.500000, -137.000000) translate(391.000000, 133.000000)" fill="#49CCFF" fill-rule="nonzero">
            <path d="M4.91283836,4.21804643 C4.91838672,4.20766232 4.92809635,4.19857622 4.93225762,4.18819211 C5.02935389,3.99868207 4.99745083,3.76503955 4.82545171,3.61317191 L0.905536278,0.143580567 C0.691924464,-0.0459294676 0.354861675,-0.0368433755 0.152346588,0.16305078 C-0.0501684993,0.362944935 -0.0404588776,0.678362327 0.173152937,0.867872362 L3.69081236,3.98180788 L0.187023828,7.14117389 C-0.0252008925,7.33198194 -0.0307492559,7.64739933 0.173152937,7.84599547 C0.277184668,7.94724055 0.417280721,7.99916111 0.555989692,7.99916111 C0.6891503,7.99916111 0.822310907,7.95243261 0.924955545,7.8589756 L4.80880664,4.35563589 C4.81574209,4.34914582 4.81851627,4.33876171 4.8268388,4.33227164 C4.83238717,4.32707958 4.83793552,4.32318553 4.84487096,4.31799348 C4.87677403,4.28813918 4.89203201,4.25179479 4.91283836,4.21804643 Z" id="Shape"></path>
        </g>
    </g>
</svg>