<?xml version="1.0" encoding="UTF-8"?>
<svg width="20px" height="18px" viewBox="0 0 20 18" version="1.1" xmlns="http://www.w3.org/2000/svg" xmlns:xlink="http://www.w3.org/1999/xlink">
    <!-- Generator: Sketch 48.2 (47327) - http://www.bohemiancoding.com/sketch -->
    <title>07_01.icon01</title>
    <desc>Created with Sketch.</desc>
    <defs></defs>
    <g id="07_01.个人中心(账户信息)" stroke="none" stroke-width="1" fill="none" fill-rule="evenodd" transform="translate(-391.000000, -371.000000)">
        <g id="Group-13" transform="translate(361.000000, 322.000000)" fill="#92A3B7" fill-rule="nonzero">
            <g id="Group-11" transform="translate(30.000000, 49.000000)">
                <g id="07_01.icon01">
                    <path d="M17.4895322,17.1868389 L4.99890838,17.1868389 C3.61933723,17.1868389 2.50076023,16.1616196 2.50076023,14.8969591 L2.50076023,12.6071686 L3.74982456,12.6071686 L3.74982456,14.8969591 C3.74982456,15.529334 4.30912281,16.041899 4.99888889,16.041899 L17.4894932,16.041899 C18.1794542,16.041899 18.738616,15.529334 18.738616,14.8969591 L18.738616,2.30274529 C18.738616,1.67051332 18.1794542,1.157859 17.4894932,1.157859 L4.99890838,1.157859 C4.3091423,1.157859 3.74984405,1.67051332 3.74984405,2.30274529 L3.74984405,4.59266082 L2.50077973,4.59266082 L2.50077973,2.30274529 C2.50077973,1.03817414 3.61933723,0.0128654971 4.99892788,0.0128654971 L17.4895322,0.0128654971 C18.8692593,0.0128654971 19.9876803,1.03817414 19.9876803,2.30274529 L19.9876803,14.8969591 C19.9876608,16.1616196 18.8692593,17.1868389 17.4895322,17.1868389 Z M12.0829045,5.02646036 C11.8396296,4.80283301 11.8396296,4.44000812 12.0829045,4.21697044 C12.3268616,3.99334308 12.7226706,3.99334308 12.9666277,4.21697044 L17.275575,8.16662443 C17.4053996,8.28571962 17.4609552,8.44389376 17.4522807,8.59988791 C17.4609552,8.75582846 17.4053996,8.91405621 17.275575,9.03368746 L12.9666277,12.9834844 C12.7226706,13.2070224 12.3268616,13.2070224 12.0829045,12.9834844 C11.8396296,12.7597677 11.8396296,12.3969428 12.0829045,12.1739409 L15.3574659,9.17225958 L0.627192982,9.17225958 C0.282553606,9.17225958 0.00259259259,8.9162898 0.00259259259,8.59988791 C0.00259259259,8.28402209 0.282553606,8.0274269 0.627192982,8.0274269 L15.3574659,8.0274269 L12.0829045,5.02646036 Z" id="Shape"></path>
                </g>
            </g>
        </g>
    </g>
</svg>