<?xml version="1.0" encoding="UTF-8"?>
<svg width="17px" height="22px" viewBox="0 0 17 22" version="1.1" xmlns="http://www.w3.org/2000/svg" xmlns:xlink="http://www.w3.org/1999/xlink">
    <!-- Generator: Sketch 48.2 (47327) - http://www.bohemiancoding.com/sketch -->
    <title>07_01.icon04</title>
    <desc>Created with Sketch.</desc>
    <defs></defs>
    <g id="07_01.个人中心(账户信息)" stroke="none" stroke-width="1" fill="none" fill-rule="evenodd" transform="translate(-392.000000, -555.000000)">
        <g id="Group-13" transform="translate(361.000000, 322.000000)" fill="#92A3B7" fill-rule="nonzero">
            <g id="Group-4" transform="translate(31.000000, 233.000000)">
                <g id="07_01.icon04">
                    <path d="M16.4172493,2.97083189 C13.5383447,2.97083189 10.8602938,1.89961157 8.98565825,0.158878495 C8.71785315,-0.0419753086 8.31614552,-0.0419753086 8.04834045,0.158878495 C6.3076074,1.96656281 3.56260529,2.97083187 0.683700627,2.97083189 C0.348944267,2.97083189 0.0141879062,3.23863699 0.0141879062,3.64034459 L0.0141879062,11.8083997 C0.0141879062,14.352548 1.35321333,16.829745 3.56260529,18.302673 L8.18224299,21.3154802 C8.31614552,21.3824314 8.38309679,21.4493827 8.51699935,21.4493827 C8.65090191,21.4493827 8.71785315,21.3824314 8.78480442,21.3824314 L13.4044421,18.302673 C15.6138341,16.829745 16.9528595,14.352548 16.9528595,11.8083997 L16.9528595,3.57339333 C17.086762,3.23863697 16.818957,2.97083189 16.4172493,2.97083189 Z M15.8816392,6.25144417 L15.8816392,11.7414484 C15.8816392,13.8838891 14.7434676,15.8924272 12.868832,17.0975501 L8.58395062,19.9095035 L4.29906926,17.0975501 C2.42443368,15.8924272 1.28626206,13.8838891 1.28626206,11.7414484 L1.28626206,4.24290605 C4.09821544,4.10900351 6.64236374,3.17168572 8.58395062,1.49790394 C10.4585862,3.17168572 13.0696858,4.04205224 15.8816392,4.24290605 L15.8816392,6.25144417 Z" id="Shape"></path>
                    <path d="M5.16943579,9.1973001 C4.96858198,8.92949501 4.49992307,8.86254374 4.23211799,9.06339757 C3.9643129,9.26425137 3.89736163,9.73291029 4.09821546,10.0007154 L6.50846121,13.0135226 C6.57541248,13.0804738 6.7762663,13.2143764 6.91016884,13.2143764 L6.9771201,13.2143764 C7.11102264,13.2143764 7.2449252,13.2143764 7.445779,13.0804738 L13.0027345,8.72864121 C13.2705396,8.5277874 13.2705396,8.05912849 13.0696858,7.79132341 C12.868832,7.59046961 12.4001731,7.52351832 12.132368,7.72437215 L7.04407137,11.7414484 L5.16943579,9.1973001 Z" id="Shape"></path>
                </g>
            </g>
        </g>
    </g>
</svg>