<?xml version="1.0" encoding="UTF-8"?>
<svg width="50px" height="51px" viewBox="0 0 50 51" version="1.1" xmlns="http://www.w3.org/2000/svg" xmlns:xlink="http://www.w3.org/1999/xlink">
    <!-- Generator: Sketch 48.2 (47327) - http://www.bohemiancoding.com/sketch -->
    <title>08_06.success</title>
    <desc>Created with Sketch.</desc>
    <defs></defs>
    <g id="08_06.邮箱验证成功" stroke="none" stroke-width="1" fill="none" fill-rule="evenodd" transform="translate(-935.000000, -333.000000)">
        <g id="Group-3" transform="translate(886.000000, 333.000000)" fill="#78A429" fill-rule="nonzero">
            <g id="08_06.success" transform="translate(49.000000, 0.000000)">
                <path d="M24.975272,50.0296736 C11.206726,50.0296736 0.00989119683,38.793274 0.00989119683,25.024728 C0.00989119683,11.256182 11.206726,0.0197823937 24.975272,0.0197823937 C38.743818,0.0197823937 49.9802176,11.2166172 49.9802176,25.024728 C49.9802176,38.8328388 38.7833828,50.0296736 24.975272,50.0296736 Z M24.975272,2.39366963 C12.512364,2.39366963 2.38377844,12.56182 2.38377844,25.024728 C2.38377844,37.487636 12.512364,47.6557864 25.0148368,47.6557864 C37.5173096,47.6557864 47.6458952,37.5272008 47.6458952,25.024728 C47.6458952,12.5222552 37.4777448,2.39366963 24.975272,2.39366963 Z M22.4431256,35.3808111 C22.4431256,35.3808111 22.4035608,35.3808111 22.4431256,35.3808111 L22.1661721,35.3808111 L22.1661721,35.3412463 L22.007913,35.3412463 L21.9287834,35.3016815 C21.8892186,35.3016815 21.8892186,35.3016815 21.8496538,35.2621167 L21.7705242,35.2621167 L21.7309594,35.2225519 L21.6122651,35.1829871 L21.5331355,35.1038576 L11.5232443,26.6765579 C11.2858556,26.4787339 11.1275964,26.2017804 11.0880317,25.8852621 C11.0484669,25.5687438 11.1671612,25.2522255 11.3649852,25.0148368 C11.6023739,24.7378833 11.9188922,24.5796241 12.2749753,24.5796241 C12.5519288,24.5796241 12.8288823,24.6983185 13.0267062,24.8565776 L22.2057369,32.611276 L36.884273,17.9327399 C37.1216617,17.6953511 37.3986152,17.5766568 37.7151335,17.5766568 C38.0316518,17.5766568 38.3481701,17.6953511 38.5459941,17.9327399 C38.7833828,18.1701286 38.9020772,18.4470821 38.9020772,18.7636004 C38.9020772,19.0801187 38.7833828,19.396637 38.5459941,19.5944609 L23.115727,35.024728 L22.9970326,35.1038576 L22.9574679,35.1434224 C22.9179031,35.1829871 22.8783383,35.1829871 22.8387735,35.2225519 C22.8387735,35.2621167 22.8387735,35.2621167 22.7992087,35.2621167 L22.7596439,35.3016815 C22.7200791,35.3016815 22.6409496,35.3412463 22.6409496,35.3412463 C22.6013848,35.3412463 22.6013848,35.3412463 22.56182,35.3808111 L22.4431256,35.3808111 Z" id="Shape"></path>
            </g>
        </g>
    </g>
</svg>