<?xml version="1.0" encoding="UTF-8"?>
<svg width="37px" height="40px" viewBox="0 0 37 40" version="1.1" xmlns="http://www.w3.org/2000/svg" xmlns:xlink="http://www.w3.org/1999/xlink">
    <!-- Generator: Sketch 48.2 (47327) - http://www.bohemiancoding.com/sketch -->
    <title>10_01.icon04</title>
    <desc>Created with Sketch.</desc>
    <defs></defs>
    <g id="10_01.ICO01" stroke="none" stroke-width="1" fill="none" fill-rule="evenodd" transform="translate(-1392.000000, -1095.000000)">
        <g id="Group-11" transform="translate(0.000000, 1031.000000)" fill="#282828">
            <g id="Group-30" transform="translate(1296.000000, 60.000000)">
                <g id="Group-10" transform="translate(78.000000, 0.000000)">
                    <g id="10_01.icon04" transform="translate(18.000000, 4.000000)">
                        <g id="Group">
                            <path d="M2.42850428,18.0575652 L2.42850428,18.0575652 L2.42850428,37.4693109 C2.42850428,37.4587469 2.42791691,37.4581561 2.41838453,37.4581561 L33.8252737,37.4581561 C33.8161894,37.4581561 33.8151539,37.4591929 33.8151539,37.4693109 L33.8151539,18.0575652 C33.8151539,18.0681293 33.8157413,18.0687201 33.8252737,18.0687201 L2.41838453,18.0687201 C2.42746874,18.0687201 2.42850428,18.0676832 2.42850428,18.0575652 L2.42850428,18.0575652 L2.42850428,18.0575652 Z M0.0141466128,18.0575652 C0.0141466128,16.7251646 1.09800056,15.6450405 2.41838453,15.6450405 L33.8252737,15.6450405 C35.1530976,15.6450405 36.2295115,16.73353 36.2295115,18.0575652 L36.2295115,37.4693109 C36.2295115,38.8017115 35.1456576,39.8818356 33.8252737,39.8818356 L2.41838453,39.8818356 C1.0905606,39.8818356 0.0141466128,38.7933461 0.0141466128,37.4693109 L0.0141466128,18.0575652 L0.0141466128,18.0575652 L0.0141466128,18.0575652 Z" id="Shape"></path>
                            <path d="M18.9117924,27.8833964 C18.9347542,27.9767559 18.9469358,28.0743787 18.9469358,28.1748577 L18.9469358,33.201569 C18.9469358,33.8708495 18.4064634,34.4134087 17.739757,34.4134087 C17.0730506,34.4134087 16.5325782,33.8708495 16.5325782,33.201569 L16.5325782,28.1748577 C16.5325782,28.0745659 16.5447145,27.9771196 16.5675933,27.8839182 C15.6608552,27.4456765 15.0350728,26.514553 15.0350728,25.4367057 C15.0350728,23.9375172 16.245731,22.7221847 17.7391534,22.7221847 C19.2325758,22.7221847 20.443234,23.9375172 20.443234,25.4367057 C20.443234,26.5141253 19.8179479,27.4449378 18.9117924,27.8833964 L18.9117924,27.8833964 Z M6.39256187,11.2903167 C6.43633996,5.05386008 11.5024454,0.0132166178 17.7433785,0.0132166178 C24.0114666,0.0132166178 29.0944811,5.09782015 29.0944811,11.3717906 C29.0944811,12.0410712 28.5540086,12.5836304 27.8873022,12.5836304 C27.2205958,12.5836304 26.6801234,12.0410712 26.6801234,11.3717906 C26.6801234,6.43830635 22.6799637,2.43689613 17.7433785,2.43689613 C12.8067933,2.43689613 8.80663362,6.43830635 8.80663362,11.3717906 L8.80663362,16.087968 C8.80663362,16.7572485 8.26616127,17.2998077 7.59945481,17.2998077 C6.93274834,17.2998077 6.39227599,16.7572485 6.39227599,16.087968 L6.39227599,11.3169549 C6.39227599,11.3080527 6.39237161,11.299173 6.39256187,11.2903167 L6.39256187,11.2903167 L6.39256187,11.2903167 Z" id="Shape"></path>
                        </g>
                    </g>
                </g>
            </g>
        </g>
    </g>
</svg>