<?xml version="1.0" encoding="UTF-8"?>
<svg width="37px" height="37px" viewBox="0 0 37 37" version="1.1" xmlns="http://www.w3.org/2000/svg" xmlns:xlink="http://www.w3.org/1999/xlink">
    <!-- Generator: Sketch 48.2 (47327) - http://www.bohemiancoding.com/sketch -->
    <title>10_01.icon02</title>
    <desc>Created with Sketch.</desc>
    <defs></defs>
    <g id="10_01.ICO01" stroke="none" stroke-width="1" fill="none" fill-rule="evenodd" transform="translate(-792.000000, -1097.000000)">
        <g id="Group-11" transform="translate(0.000000, 1031.000000)" fill="#282828">
            <g id="Group-32" transform="translate(696.000000, 63.000000)">
                <g id="Group-8" transform="translate(79.000000, 0.000000)">
                    <g id="10_01.icon02" transform="translate(17.000000, 3.000000)">
                        <path d="M26.4862187,21.8427187 C26.640406,21.8118348 26.7864873,21.7492286 26.9151875,21.658875 C31.5159063,18.2884062 37,13.000875 37,6.9375 C37,6.55709375 36.9664687,3.824875 36.9433438,3.404 C36.9090028,2.7917307 36.4026378,2.31276416 35.7894062,2.3125 L31.21875,2.3125 C31.21875,0.929625 30.2255312,0 28.7455312,0 L8.06715625,0 C6.6345625,0 5.78125,0.864875 5.78125,2.3125 L1.21059375,2.3125 C0.59862612,2.31265788 0.092762321,2.78962966 0.05665625,3.40053125 C0.03121875,3.8295 0,6.5790625 0,6.9375 C0,13.047125 5.563875,18.3739687 10.2305,21.76525 C10.3021875,21.8172812 10.3796563,21.8461875 10.4559688,21.880875 C11.8850938,24.2615937 13.7489688,26.2503437 16.1875,27.3672812 L16.1875,28.827625 C16.1135,29.2554375 15.3607813,32.375 9.25,32.375 C8.81178125,32.375 8.4105625,32.6235937 8.21515625,33.0144062 L7.05890625,35.3269062 C6.8796875,35.6865 6.8981875,36.112 7.108625,36.4530937 C7.32021875,36.791875 7.691375,37 8.09375,37 L28.90625,37 C29.307095,36.9997391 29.6792672,36.7920913 29.8900187,36.4511212 C30.1007703,36.1101511 30.1200926,35.6844089 29.9410938,35.32575 L28.7848438,33.01325 C28.5877983,32.6224274 28.1876857,32.3756541 27.75,32.375 C21.6380625,32.375 20.8853437,29.2554375 20.8125,28.827625 L20.8125,27.3603437 C23.2175,26.233 25.0640312,24.2326875 26.4862187,21.8427187 L26.4862187,21.8427187 Z M31.0996563,4.625 L34.6574375,4.625 C34.673625,5.5315 34.6875,6.692375 34.6875,6.9375 C34.6875,10.8248125 31.7910938,14.4855 28.5674688,17.3599375 C30.2775625,12.6100625 30.8845938,7.50059375 31.0996563,4.625 L31.0996563,4.625 Z M2.3125,6.9375 C2.3125,6.66346875 2.32521875,5.517625 2.33909375,4.625 L5.8806875,4.625 C6.07378125,7.48209375 6.64496875,12.5406875 8.3180625,17.2628125 C5.129125,14.3941563 2.3125,10.7750938 2.3125,6.9375 L2.3125,6.9375 Z M27.0285,34.6747813 L27.0342813,34.6875 L9.96340625,34.6875 L9.97034375,34.6747813 C17.9068438,34.3799375 18.4745625,29.234625 18.5,28.90625 L18.5,28.5466563 L18.5023125,28.5443438 L18.504625,29.0114688 C18.5242813,29.2380938 19.092,34.3799375 27.0285,34.6747813 L27.0285,34.6747813 Z M19.24925,25.5103438 C19.105875,25.5646875 18.634125,25.654875 18.5,25.654875 C18.365875,25.654875 17.8883438,25.5612188 17.7415,25.5080313 C9.865125,22.620875 8.09375,7.41271875 8.09375,2.3125 L28.7455312,2.3125 C28.8114375,2.3125 28.8657813,2.3194375 28.90625,2.32753125 C28.901625,7.41965625 27.1244688,22.5584375 19.24925,25.5103438 L19.24925,25.5103438 Z" id="Shape"></path>
                    </g>
                </g>
            </g>
        </g>
    </g>
</svg>