<?xml version="1.0" encoding="UTF-8"?>
<svg width="39px" height="42px" viewBox="0 0 39 42" version="1.1" xmlns="http://www.w3.org/2000/svg" xmlns:xlink="http://www.w3.org/1999/xlink">
    <!-- Generator: Sketch 48.2 (47327) - http://www.bohemiancoding.com/sketch -->
    <title>10_01.icon01</title>
    <desc>Created with Sketch.</desc>
    <defs></defs>
    <g id="10_01.ICO01" stroke="none" stroke-width="1" fill="none" fill-rule="evenodd" transform="translate(-491.000000, -1096.000000)">
        <g id="Group-11" transform="translate(0.000000, 1031.000000)" fill="#282828">
            <g id="Group-33" transform="translate(396.000000, 65.000000)">
                <g id="Group-7" transform="translate(79.000000, 0.000000)">
                    <g id="10_01.icon01" transform="translate(16.000000, 0.000000)">
                        <g id="盾牌-(2)">
                            <g id="Group">
                                <path d="M37.4813179,8.89138065 C37.3928066,8.85269003 37.2949959,8.82185318 37.1871151,8.80065283 C30.5415811,7.49225489 25.1053335,4.31287924 19.7557662,0.23884948 C19.4212346,-0.015988157 18.750774,-0.0256728767 18.4167242,0.231477538 C15.9698683,2.11401905 13.4485221,3.94799256 10.7631624,5.46796022 C7.82151964,7.13315014 4.2253647,7.91409338 0.981328022,8.77256241 C0.116788016,9.0013333 -0.103599121,9.81663071 0.119341682,10.480153 C0.390561437,16.646174 1.3983964,23.1200335 3.97038247,28.7355203 C6.68609715,34.6650612 13.0875382,39.1030621 18.7928855,41.8077912 C18.990675,41.9015545 19.1852363,41.9447743 19.3709319,41.9479544 C19.6099175,41.9764303 19.8682243,41.9376433 20.1320721,41.8077912 C25.848116,38.9951814 31.7167541,34.5686961 34.6110816,28.7355203 C37.3677515,23.1799726 38.2301233,16.3189661 38.4760954,10.1599316 C38.5058241,9.41811263 38.0345985,8.99603321 37.4813179,8.89138065 L37.4813179,8.89138065 Z M32.3202892,27.3823608 C29.9218568,32.6190362 24.5042076,36.5751632 19.4503851,39.1625195 C14.3955508,36.6635782 9.2399185,32.9484605 6.53268396,27.9296185 C3.88346121,23.0181755 3.07303024,16.6700244 2.7984859,11.0608012 C5.66814395,10.2940237 8.5373683,9.47516073 11.2561667,8.27122263 C14.0629946,7.02830481 16.654061,5.05725188 19.1053497,3.16146016 C24.2296633,6.8755179 29.5013674,9.89324097 35.7710292,11.26736 C35.4766336,16.7088114 34.5772576,22.4547766 32.3202892,27.3823608 L32.3202892,27.3823608 Z" id="Shape"></path>
                                <path d="M27.8793973,14.2227348 C24.4106852,17.7281138 20.9419732,21.2334928 17.4732612,24.7389681 C15.6344694,22.8807106 13.7956777,21.0224531 11.9570305,19.1641956 C10.7462505,17.9405508 8.87021354,19.8365353 10.0809936,21.0601801 C12.1975579,23.1990047 14.3139295,25.3381185 16.4304938,27.4769432 C16.461668,27.5084546 16.4934203,27.5374123 16.5254135,27.5648764 C16.9929772,28.0495449 17.7737278,28.2271941 18.3850202,27.6093971 C22.1751582,23.7790748 25.9651035,19.9487525 29.7552415,16.1185748 C30.9660696,14.89493 29.0901773,12.9990419 27.8793973,14.2227348 L27.8793973,14.2227348 Z" id="Shape"></path>
                            </g>
                        </g>
                    </g>
                </g>
            </g>
        </g>
    </g>
</svg>