<?xml version="1.0" encoding="UTF-8"?>
<svg width="43px" height="41px" viewBox="0 0 43 41" version="1.1" xmlns="http://www.w3.org/2000/svg" xmlns:xlink="http://www.w3.org/1999/xlink">
    <!-- Generator: Sketch 48.2 (47327) - http://www.bohemiancoding.com/sketch -->
    <title>10_01.icon03</title>
    <desc>Created with Sketch.</desc>
    <defs></defs>
    <g id="10_01.ICO01" stroke="none" stroke-width="1" fill="none" fill-rule="evenodd" transform="translate(-1089.000000, -1094.000000)">
        <g id="Group-11" transform="translate(0.000000, 1031.000000)" fill="#282828">
            <g id="Group-31" transform="translate(996.000000, 63.000000)">
                <g id="Group-9" transform="translate(83.000000, 0.000000)">
                    <g id="10_01.icon03" transform="translate(10.000000, 0.000000)">
                        <path d="M24.6630962,19.3907864 C25.2001906,23.9954414 29.0934755,27.5677494 33.8189726,27.5677494 C38.54305,27.5677494 42.4362943,23.9954414 42.9720094,19.3922096 L42.9576896,19.3922096 C42.9803632,19.1780443 42.9384522,18.9619841 42.8373708,18.7719393 L34.8832632,3.80209344 C34.8138033,3.50248035 34.6191968,3.24725922 34.3490085,3.1014328 C34.2548871,3.05258042 34.153963,3.01821453 34.0496311,2.99949117 L34.0238311,2.99518091 C33.9750779,2.98647858 33.9257789,2.98119316 33.8762925,2.97936309 C33.8619726,2.97936309 33.8476123,2.9736703 33.8332925,2.9736703 L22.5402755,2.9736703 L22.5402755,1.34536928 C22.5402755,0.616000701 22.0589594,0.0244383406 21.4659651,0.0244383406 C20.8729708,0.0244383406 20.3916547,0.616000701 20.3916547,1.34536928 L20.3916547,2.9736703 L9.10147736,2.9736703 C9.08715755,2.9736703 9.07283774,2.97798055 9.05847736,2.97940375 L9.01839811,2.98229081 C8.80970673,3.00034894 8.6121106,3.0843055 8.4540434,3.22207932 L8.44828302,3.22638957 C8.36416063,3.29811451 8.2921122,3.38295274 8.23490566,3.47764499 C8.17223359,3.57715597 8.12625773,3.68629142 8.0988066,3.80071091 L0.141778302,18.7733625 C0.0524725533,18.9443502 0.010915393,19.1363484 0.0215,19.3290602 C0.0200396226,19.3506115 0.0157396226,19.3721628 0.0157396226,19.3937141 L0.00141981132,19.3937141 C0.538595283,23.9969053 4.43041981,27.5692133 9.1544566,27.5692133 C13.8814142,27.5692133 17.7732387,23.9969053 18.3103736,19.3936734 L18.2960538,19.3936734 C18.3182935,19.1793646 18.2758863,18.9632959 18.1743151,18.7734031 L10.9263811,5.13314942 L20.3930745,5.13314942 L20.3930745,38.4441122 L9.10005755,38.4441122 C8.53282264,38.4441122 8.0730066,38.9279994 8.0730066,39.5238314 C8.0730066,40.1196634 8.53282264,40.6021274 9.10005755,40.6021274 L33.8332925,40.6021274 C34.3991075,40.6021274 34.8589236,40.119704 34.8589236,39.5238314 C34.8589236,38.9279588 34.4005274,38.4441122 33.8318726,38.4441122 L22.5402755,38.4441122 L22.5402755,5.13314942 L32.0528491,5.13314942 L24.8049151,18.7733625 C24.7156551,18.9443545 24.6740741,19.1363196 24.6845557,19.3290196 C24.6831358,19.3505709 24.6788358,19.3721221 24.6788358,19.3936734 L24.664516,19.3936734 L24.6630962,19.3907864 Z M9.15591698,25.4111573 C6.07763148,25.4088147 3.35401081,23.4118746 2.41931792,20.4719288 L13.5562368,20.4719288 C14.0432726,20.4719288 14.4371689,19.9895054 14.4371689,19.3936328 C14.4371689,18.7977601 14.0432726,18.3153367 13.5562368,18.3153367 L2.82043491,18.3153367 L9.1587566,6.38658012 L16.1273934,19.4999253 C15.5513642,22.9101127 12.6064086,25.40719 9.15591698,25.4111573 L9.15591698,25.4111573 Z M33.8189726,25.4111573 C30.7407021,25.408797 28.0171025,23.4118603 27.0824142,20.4719288 L38.3124321,20.4719288 C38.8037274,20.4719288 39.2005038,19.9895054 39.2005038,19.3936328 C39.2005038,18.7977601 38.8037679,18.3153367 38.3124321,18.3153367 L27.4834906,18.3153367 L33.8218528,6.38658012 L40.7890698,19.4999253 C40.213131,22.9095831 37.268968,25.4064969 33.8190132,25.4111573 L33.8189726,25.4111573 Z" id="Shape"></path>
                    </g>
                </g>
            </g>
        </g>
    </g>
</svg>