<?xml version="1.0" encoding="UTF-8"?>
<svg width="19px" height="15px" viewBox="0 0 19 15" version="1.1" xmlns="http://www.w3.org/2000/svg" xmlns:xlink="http://www.w3.org/1999/xlink">
    <!-- Generator: Sketch 48.2 (47327) - http://www.bohemiancoding.com/sketch -->
    <title>20_icon01@3x</title>
    <desc>Created with Sketch.</desc>
    <defs></defs>
    <g id="20" stroke="none" stroke-width="1" fill="none" fill-rule="evenodd" transform="translate(-19.000000, -226.000000)">
        <g id="Group-9" transform="translate(15.000000, 225.000000)" fill="#BEBEBE" fill-rule="nonzero">
            <g id="20_icon01" transform="translate(4.000000, 1.000000)">
                <path d="M18.3051764,2.47157978 C17.9267348,2.47157978 17.6199809,2.16482584 17.6199809,1.78640562 C17.6199809,1.55701798 17.4333539,1.37039101 17.2039449,1.37039101 L1.78646966,1.37039101 C1.55706067,1.37039101 1.37043371,1.55699663 1.37043371,1.78640562 C1.37043371,2.16484719 1.06365843,2.47157978 0.685238202,2.47157978 C0.306817978,2.47157978 4.26966292e-05,2.16482584 4.26966292e-05,1.78640562 C4.26966292e-05,0.801394382 0.801458427,0 1.78651236,0 L17.2039876,0 C18.1890416,0 18.9904573,0.801394382 18.9904573,1.78640562 C18.9904573,2.16484719 18.683682,2.47157978 18.3052618,2.47157978 L18.3051764,2.47157978 Z M17.2039449,14.584827 L1.78646966,14.584827 C0.80141573,14.584827 0,13.7834326 0,12.7984213 C0,12.4199798 0.306775281,12.1132472 0.685195506,12.1132472 C1.06361573,12.1132472 1.37039101,12.4200011 1.37039101,12.7984213 C1.37039101,13.027809 1.55701798,13.214436 1.78642697,13.214436 L17.2039022,13.214436 C17.4333112,13.214436 17.6199382,13.0278303 17.6199382,12.7984213 C17.6199382,12.4199798 17.9267135,12.1132472 18.3051337,12.1132472 C18.6835539,12.1132472 18.9903292,12.4200011 18.9903292,12.7984213 C18.9903292,13.7834326 18.1889348,14.584827 17.2038596,14.584827 L17.2039449,14.584827 Z M2.394,10.2105573 L2.394,9.47728539 L3.47407528,9.47728539 L3.47407528,5.17705169 L2.2749618,5.58307528 L2.21537865,4.82002247 L3.89045281,4.24528315 L4.28682697,4.24528315 L4.28682697,9.47732809 L5.15909775,9.47732809 L5.15909775,10.2106 L2.39402135,10.2106 L2.394,10.2105573 Z M7.29937303,6.91123933 C7.12194719,6.68326067 7.03262584,6.36593933 7.03262584,6.00891011 C7.03262584,4.99802472 7.81557528,4.2452618 8.95523371,4.2452618 C10.0842393,4.2452618 10.887,4.9292191 10.887,6.05886517 C10.887,6.90065056 10.4806562,7.51514045 9.54950674,8.31785843 C9.2225573,8.59551461 8.7659809,9.03123371 8.36023483,9.47730674 L10.9763213,9.47730674 L10.9763213,10.2105787 L6.99225618,10.2105787 L6.99225618,9.81414045 C7.59716067,9.14045169 8.41913483,8.31783708 9.06376854,7.72358539 C9.7672809,7.08930562 10.0551202,6.61379326 10.0551202,6.06847191 C10.0551202,5.41465843 9.61835506,4.99804607 8.9446236,4.99804607 C8.27095618,4.99804607 7.86456966,5.42458539 7.86456966,5.94936966 C7.86456966,6.17734831 7.93410112,6.39537865 8.08296292,6.62369888 L7.29939438,6.91123933 L7.29937303,6.91123933 Z M13.5136966,8.72386067 C13.8313809,9.27876742 14.2377247,9.5861618 14.7725,9.5861618 C15.466064,9.5861618 15.9418753,9.14043034 15.9418753,8.48595506 C15.9418753,7.84204719 15.5653337,7.50519213 14.951164,7.50519213 L14.5249236,7.50519213 L14.5249236,6.77228315 L14.9405539,6.77228315 C15.456073,6.77228315 15.7836629,6.49464831 15.7836629,5.90039663 C15.7836629,5.34546854 15.3866056,4.99806742 14.8021528,4.99806742 C14.2972011,4.99806742 13.9001438,5.29553483 13.5930697,5.91990899 L12.9299483,5.51390674 C13.3157764,4.70124045 13.959727,4.24528315 14.8021742,4.24528315 C15.8921978,4.24528315 16.6155854,4.86007191 16.6155854,5.84083483 C16.6155854,6.4453764 16.3283225,6.86130562 15.8227517,7.13855618 C16.4176865,7.36653483 16.7737124,7.81258652 16.7737124,8.49652247 C16.7737124,9.62618989 15.9517809,10.3396079 14.7525607,10.3396079 C13.8604573,10.3396079 13.2462876,9.91306854 12.8399865,9.21986742 L13.5136966,8.72381798 L13.5136966,8.72386067 Z" id="Shape"></path>
            </g>
        </g>
    </g>
</svg>