<?xml version="1.0" encoding="UTF-8"?>
<svg width="20px" height="30px" viewBox="0 0 20 30" version="1.1" xmlns="http://www.w3.org/2000/svg" xmlns:xlink="http://www.w3.org/1999/xlink">
    <!-- Generator: Sketch 51 (57462) - http://www.bohemiancoding.com/sketch -->
    <title>Shape</title>
    <desc>Created with Sketch.</desc>
    <defs></defs>
    <g id="Page-1" stroke="none" stroke-width="1" fill="none" fill-rule="evenodd">
        <g id="home" transform="translate(-166.000000, -414.000000)">
            <rect fill="#F4F5F6" x="0" y="0" width="1440" height="1660"></rect>
            <g id="Group-2" transform="translate(166.000000, 408.000000)" fill="#FFA744" fill-rule="nonzero">
                <path d="M15.0980392,20.4618834 L15.0980392,20.3273543 C17.7124183,19.7219731 19.0849673,18.0403587 19.1503268,15.3497758 C18.9542484,12.793722 17.5163399,11.1793722 14.9019608,10.573991 L14.9019608,6 L12.1568627,6 L12.1568627,10.3049327 L9.86928105,10.3049327 L9.86928105,6 L7.12418301,6 L7.12418301,10.3049327 L0,10.3049327 L0,13.5336323 L3.9869281,13.5336323 L3.9869281,28.3991031 L0,28.3991031 L0,31.6278027 L7.05882353,31.6278027 L7.05882353,36 L9.80392157,36 L9.80392157,31.6278027 L12.0915033,31.6278027 L12.0915033,36 L14.8366013,36 L14.8366013,31.4932735 C18.2352941,31.0224215 20,29.0044843 20,25.573991 C19.7385621,22.7488789 18.1045752,21.0672646 15.0980392,20.4618834 Z M6.99346405,12.793722 L11.8954248,12.793722 C14.5098039,12.793722 15.8823529,13.8026906 15.9477124,15.8878924 C15.8823529,18.1076233 14.5098039,19.2511211 11.8954248,19.3183857 L6.99346405,19.3183857 L6.99346405,12.793722 Z M12.6797386,29.206278 L6.99346405,29.206278 L6.99346405,21.941704 L12.2875817,21.941704 C15.0980392,22.0089686 16.6013072,23.1524664 16.7320261,25.3721973 C16.7320261,27.8609865 15.3594771,29.1390135 12.6797386,29.206278 Z" id="Shape"></path>
            </g>
        </g>
    </g>
</svg>