<?xml version="1.0" encoding="UTF-8"?>
<svg width="17px" height="25px" viewBox="0 0 17 25" version="1.1" xmlns="http://www.w3.org/2000/svg" xmlns:xlink="http://www.w3.org/1999/xlink">
    <!-- Generator: Sketch 50 (54983) - http://www.bohemiancoding.com/sketch -->
    <title>bitcoin02</title>
    <desc>Created with Sketch.</desc>
    <defs></defs>
    <g id="Page-1" stroke="none" stroke-width="1" fill="none" fill-rule="evenodd">
        <g id="CoinPea-PC-分配收入详情" transform="translate(-1170.000000, -450.000000)" fill="#FFFFFF" fill-rule="nonzero">
            <g id="Group-3" transform="translate(360.000000, 368.000000)">
                <g id="Group-13" transform="translate(810.000000, 43.000000)">
                    <g id="Group-5-Copy" transform="translate(0.000000, 38.000000)">
                        <path d="M15.7080088,8.39480997 C15.8776722,10.1857021 15.2602857,11.4550706 13.8558493,12.2029157 C14.9586618,12.4784375 15.7834147,12.9852009 16.3301081,13.7232059 C16.8768015,14.4612109 17.0888808,15.514098 16.9663461,16.8818672 C16.9003659,17.580512 16.7471975,18.1955161 16.5068409,18.7268797 C16.2664843,19.2582433 15.9625039,19.6961262 15.5948998,20.0405286 C15.2272956,20.3849309 14.7701468,20.6727528 14.2234535,20.9039944 C13.6767601,21.1352359 13.1041459,21.3049771 12.5056109,21.4132178 C11.907076,21.5214586 11.2213528,21.5952591 10.4484415,21.6346193 L10.4484415,25.3984448 L8.27109373,25.3984448 L8.27109373,21.6936598 C7.51703389,21.6936598 6.94206327,21.6887397 6.54618186,21.6788996 L6.54618186,25.3984448 L4.36883411,25.3984448 L4.36883411,21.6346193 C4.19917065,21.6346193 3.94467546,21.6592195 3.60534853,21.7084198 C3.2660216,21.7576202 3.00681354,21.7822203 2.82772435,21.7822203 L7.03226649e-16,21.7822203 L0.438297282,19.0811221 L2.00768429,19.0811221 C2.47897169,19.0811221 2.75231837,18.8302004 2.82772435,18.328357 L2.82772435,12.3947969 L3.05394229,12.3947969 C2.99738781,12.3849569 2.92198183,12.3800368 2.82772435,12.3800368 L2.82772435,8.14388824 C2.70518963,7.47476372 2.28574385,7.14020146 1.56938701,7.14020146 L0,7.14020146 L0,4.71954511 L2.99738781,4.73430522 C3.60063568,4.73430522 4.05778445,4.72938518 4.36883411,4.71954511 L4.36883411,1 L6.54618186,1 L6.54618186,4.64574461 C7.31909319,4.62606448 7.89406381,4.61622441 8.27109373,4.61622441 L8.27109373,1 L10.4484415,1 L10.4484415,4.71954511 C11.1930756,4.78842558 11.8528779,4.89912632 12.4278485,5.05164736 C13.0028191,5.20416839 13.5353739,5.42556989 14.0255128,5.71585185 C14.5156517,6.00613381 14.9044638,6.3898964 15.1919491,6.86713963 C15.4794344,7.34438286 15.6514543,7.90772666 15.7080088,8.55717103 L15.7080088,8.39480997 Z M12.6682051,16.4390643 C12.6682051,16.0848219 12.597512,15.7699397 12.4561257,15.4944179 C12.3147395,15.218896 12.1403632,14.9925745 11.9329967,14.8154533 C11.7256303,14.6383321 11.45464,14.4882711 11.120026,14.3652703 C10.7854119,14.2422694 10.4767187,14.1512488 10.1939463,14.0922084 C9.91117385,14.033168 9.56242118,13.9888877 9.14768826,13.9593675 C8.73295535,13.9298473 8.40776705,13.9150872 8.17212337,13.9150872 C7.9364797,13.9150872 7.63249933,13.9200072 7.26018227,13.9298473 C6.8878652,13.9396874 6.66400369,13.9446075 6.58859774,13.9446074 L6.58859774,18.9335211 C6.66400373,18.9335211 6.83838006,18.9581213 7.11172674,19.0073216 C7.38507342,19.0565219 7.61129136,19.0811221 7.79038057,19.0811221 C7.96946978,19.0811221 8.2192521,19.0737421 8.53972752,19.058982 C8.86020294,19.0442219 9.13590606,19.0245417 9.36683688,18.9999416 C9.5977677,18.9753414 9.86640152,18.9335211 10.1727383,18.8744807 C10.4790751,18.8154403 10.7406396,18.7465598 10.9574318,18.6678393 C11.174224,18.5891188 11.3980856,18.4857981 11.6290164,18.3578772 C11.8599472,18.2299564 12.0461057,18.0823554 12.1874919,17.9150742 C12.3288782,17.7477931 12.4443436,17.5509918 12.5338882,17.3246703 C12.6234328,17.0983487 12.6682051,16.847427 12.6682051,16.5719052 L12.6682051,16.4390643 Z M11.6643629,9.41325683 C11.6643629,9.08853464 11.605452,8.8007127 11.4876302,8.54979101 C11.3698083,8.29886933 11.2260657,8.09222793 11.0564022,7.92986683 C10.8867387,7.76750572 10.6605208,7.62974479 10.3777484,7.51658404 C10.0949759,7.40342328 9.83576787,7.32224274 9.60012418,7.2730424 C9.36448049,7.22384207 9.07463874,7.1844818 8.73059894,7.1549616 C8.38655915,7.12544139 8.11321246,7.11314131 7.91055888,7.11806136 C7.70790531,7.1229814 7.45341012,7.12790144 7.14707331,7.13282147 C6.84073649,7.1377415 6.65457797,7.16234166 6.58859774,7.20662197 L6.58859774,11.7379726 C6.63572648,11.7379726 6.79832063,11.7625727 7.07638019,11.8117731 C7.35443976,11.8609734 7.5735884,11.8609734 7.73382612,11.8117731 C7.89406383,11.7625727 8.12970753,11.7527327 8.44075722,11.7822529 C8.7518069,11.8117731 9.01101496,11.7847129 9.2183814,11.7010723 C9.42574784,11.6174317 9.66846085,11.5633114 9.94652041,11.5387112 C10.22458,11.5141111 10.4531544,11.4230904 10.6322436,11.2656494 C10.8113328,11.1082083 10.9857091,10.9753674 11.1553726,10.8671267 C11.325036,10.758886 11.4522836,10.5694647 11.5371154,10.2988629 C11.6219471,10.028261 11.6643629,9.77733931 11.6643629,9.54609778 L11.6643629,9.41325683 Z" id="bitcoin02"></path>
                    </g>
                </g>
            </g>
        </g>
    </g>
</svg>