<?xml version="1.0" encoding="UTF-8"?>
<svg width="9px" height="13px" viewBox="0 0 9 13" version="1.1" xmlns="http://www.w3.org/2000/svg" xmlns:xlink="http://www.w3.org/1999/xlink">
    <!-- Generator: Sketch 48.2 (47327) - http://www.bohemiancoding.com/sketch -->
    <title>bitcoin02</title>
    <desc>Created with Sketch.</desc>
    <defs></defs>
    <g id="CoinPea首页banner部位调整" stroke="none" stroke-width="1" fill="none" fill-rule="evenodd" transform="translate(-410.000000, -443.000000)">
        <g id="Group-68" fill="#3EBAE4" fill-rule="nonzero">
            <g id="Group-54" transform="translate(410.000000, 310.000000)">
                <g id="Group-14" transform="translate(0.000000, 1.000000)">
                    <g id="Group-11" transform="translate(0.000000, 131.000000)">
                        <path d="M8.31600464,4.86433759 C8.40582647,5.80021175 8.0789748,6.46355113 7.33544963,6.85435573 C7.91929154,6.99833637 8.35592545,7.2631579 8.64535135,7.64882034 C8.93477726,8.03448277 9.04705455,8.5846945 8.98218323,9.29945554 C8.94725252,9.66454931 8.86616336,9.98593467 8.73891576,10.2636116 C8.61166816,10.5412886 8.45073738,10.7701149 8.25612341,10.9500907 C8.06150944,11.1300666 7.81948951,11.2804749 7.5300636,11.4013158 C7.2406377,11.5221567 6.93748902,11.610859 6.62061756,11.6674229 C6.3037461,11.7239867 5.94071619,11.7625529 5.53152784,11.7831216 L5.53152784,13.75 L4.37881433,13.75 L4.37881433,11.8139746 C3.97960618,11.8139746 3.67520997,11.8114035 3.46562569,11.8062613 L3.46562569,13.75 L2.31291218,13.75 L2.31291218,11.7831216 C2.22309035,11.7831216 2.0883576,11.795977 1.90871393,11.8216878 C1.72907026,11.8473987 1.59184246,11.8602541 1.49703054,11.8602541 L3.72296461e-16,11.8602541 L0.232039737,10.4487296 L1.06289168,10.4487296 C1.31239678,10.4487296 1.45710973,10.3176044 1.49703054,10.0553539 L1.49703054,6.95462795 L1.61679298,6.95462795 C1.58685237,6.94948578 1.54693156,6.9469147 1.49703054,6.9469147 L1.49703054,4.73321234 C1.43215922,4.38354507 1.21009969,4.20871143 0.830851944,4.20871143 L0,4.20871143 L0,2.94373865 L1.58685237,2.95145191 C1.90621889,2.95145191 2.14823882,2.94888082 2.31291218,2.94373865 L2.31291218,1 L3.46562569,1 L3.46562569,2.90517241 C3.87481404,2.89488808 4.17921025,2.88974591 4.37881433,2.88974591 L4.37881433,1 L5.53152784,1 L5.53152784,2.94373865 C5.92574588,2.97973381 6.27505301,3.03758318 6.57944922,3.11728675 C6.88384543,3.19699032 7.16578618,3.31268905 7.42527148,3.46438294 C7.68475678,3.61607683 7.89059847,3.8166213 8.04279658,4.06601634 C8.19499468,4.31541138 8.28606404,4.60980037 8.31600465,4.9491833 L8.31600464,4.86433759 Z M6.70669681,9.06805808 C6.70669681,8.88294011 6.66927104,8.7183908 6.59441951,8.57441016 C6.51956798,8.43042952 6.4272511,8.31215971 6.31746886,8.21960073 C6.20768663,8.12704175 6.0642212,8.04862372 5.88707258,7.98434665 C5.70992396,7.92006958 5.54649813,7.87250455 5.39679508,7.84165155 C5.24709204,7.81079855 5.06245827,7.7876588 4.84289379,7.77223231 C4.6233293,7.75680582 4.45117079,7.74909257 4.32641826,7.74909256 C4.20166572,7.74909255 4.04073494,7.75166364 3.84362591,7.75680582 C3.64651687,7.761948 3.52800195,7.76451908 3.48808115,7.76451907 L3.48808115,10.3715971 C3.52800197,10.3715971 3.62031885,10.3844525 3.7650318,10.4101634 C3.90974475,10.4358742 4.02950719,10.4487296 4.12431913,10.4487296 C4.21913106,10.4487296 4.35136876,10.444873 4.52103222,10.4371597 C4.69069567,10.4294465 4.83665615,10.4191621 4.95891364,10.4063067 C5.08117114,10.3934513 5.22338904,10.3715971 5.38556735,10.3407441 C5.54774566,10.3098911 5.68622099,10.273896 5.80099333,10.2327586 C5.91576567,10.1916213 6.03428059,10.1376286 6.15653808,10.0707804 C6.27879558,10.0039323 6.37735009,9.92679977 6.45220162,9.83938296 C6.52705315,9.75196614 6.5881819,9.64912283 6.63558786,9.53085301 C6.68299382,9.41258319 6.70669681,9.28145796 6.70669681,9.13747733 L6.70669681,9.06805808 Z M6.17525096,5.39655173 C6.17525096,5.22686026 6.14406282,5.07645192 6.08168655,4.9453267 C6.01931028,4.81420147 5.94321123,4.70621599 5.8533894,4.62137025 C5.76356757,4.53652451 5.64380513,4.46453419 5.49410208,4.40539929 C5.34439902,4.34626439 5.20717123,4.30384153 5.08241868,4.2781307 C4.95766614,4.25241987 4.80422051,4.2318512 4.62208179,4.2164247 C4.43994308,4.2009982 4.29523013,4.1945705 4.18794294,4.19714158 C4.08065575,4.19971267 3.945923,4.20228376 3.78374469,4.20485484 C3.62156638,4.20742592 3.52301187,4.22028133 3.48808115,4.24342108 L3.48808115,6.61138841 C3.51303166,6.61138841 3.59911092,6.62424382 3.74631893,6.64995465 C3.89352693,6.67566548 4.0095468,6.67566548 4.09437853,6.64995465 C4.17921027,6.62424382 4.30396281,6.61910166 4.46863617,6.63452816 C4.63330953,6.64995466 4.77053733,6.6358137 4.88031957,6.59210529 C4.9901018,6.54839688 5.11859692,6.52011497 5.26580492,6.50725956 C5.41301293,6.49440415 5.5340229,6.44683911 5.62883483,6.36456445 C5.72364677,6.2822898 5.81596365,6.21287056 5.90578548,6.15630675 C5.99560731,6.09974294 6.06297368,6.00075625 6.1078846,5.85934668 C6.15279551,5.71793711 6.17525097,5.58681188 6.17525097,5.465971 L6.17525096,5.39655173 Z" id="bitcoin02"></path>
                    </g>
                </g>
            </g>
        </g>
    </g>
</svg>