<?xml version="1.0" encoding="UTF-8"?>
<svg width="22px" height="32px" viewBox="0 0 22 32" version="1.1" xmlns="http://www.w3.org/2000/svg" xmlns:xlink="http://www.w3.org/1999/xlink">
    <!-- Generator: Sketch 50 (54983) - http://www.bohemiancoding.com/sketch -->
    <title>bitcoin01</title>
    <desc>Created with Sketch.</desc>
    <defs></defs>
    <g id="Page-1" stroke="none" stroke-width="1" fill="none" fill-rule="evenodd">
        <g id="CoinPea-PC-分配收入详情" transform="translate(-541.000000, -447.000000)" fill="#3EBAE4" fill-rule="nonzero">
            <g id="Group-3" transform="translate(360.000000, 368.000000)">
                <g id="Group-14" transform="translate(181.000000, 43.000000)">
                    <g id="Group-5" transform="translate(0.000000, 34.000000)">
                        <path d="M20.0508119,11.4392578 C20.2673823,13.7252789 19.4793066,15.3455906 17.6865847,16.3001929 C19.0942925,16.6518884 20.1470654,17.298757 20.8449034,18.2407987 C21.5427415,19.1828404 21.8134545,20.5268199 21.6570425,22.2727371 C21.5728207,23.1645366 21.3773057,23.9495713 21.0704976,24.6278413 C20.7636895,25.3061113 20.3756675,25.8650561 19.9064316,26.3046756 C19.4371957,26.744295 18.8536587,27.1116913 18.1558207,27.4068643 C17.4579826,27.7020373 16.7270574,27.9187069 15.9630451,28.0568731 C15.1990328,28.1950392 14.3237273,28.2892434 13.3371287,28.3394856 L13.3371287,33.1438982 L10.5578082,33.1438982 L10.5578082,28.414849 C9.59527301,28.414849 8.8613399,28.4085687 8.35600891,28.3960081 L8.35600891,33.1438982 L5.57668844,33.1438982 L5.57668844,28.3394856 C5.36011802,28.3394856 5.03526238,28.370887 4.60212152,28.4336898 C4.16898066,28.4964926 3.83810918,28.527894 3.60950709,28.527894 L8.97648166e-16,28.527894 L0.559473609,25.0800214 L2.56275003,25.0800214 C3.16433456,25.0800214 3.51325358,24.7597272 3.60950709,24.1191388 L3.60950709,16.5451237 L3.89826765,16.5451237 C3.82607752,16.5325631 3.729824,16.5262828 3.60950709,16.5262828 L3.60950709,11.1189635 C3.45309512,10.2648457 2.9176849,9.83778684 2.00327642,9.83778684 L0,9.83778684 L0,6.7478901 L3.82607752,6.76673095 C4.59610571,6.76673095 5.17964268,6.76045067 5.57668844,6.7478901 L5.57668844,2 L8.35600891,2 L8.35600891,6.65368593 C9.34260752,6.62856482 10.0765406,6.61600427 10.5578082,6.61600427 L10.5578082,2 L13.3371287,2 L13.3371287,6.7478901 C14.2876322,6.83581399 15.1298506,6.97712025 15.8637837,7.17180887 C16.5977168,7.36649748 17.2775073,7.64910999 17.9031552,8.01964639 C18.5288031,8.39018279 19.0251103,8.88004448 19.3920769,9.48923144 C19.7590434,10.0984184 19.9786218,10.8175102 20.0508119,11.6465069 L20.0508119,11.4392578 Z M16.1705918,21.7075121 C16.1705918,21.2553321 16.0803541,20.8533943 15.8998787,20.5016988 C15.7194033,20.1500032 15.4968171,19.8611104 15.2321199,19.6350204 C14.9674227,19.4089304 14.6215116,19.2173819 14.1943866,19.060375 C13.7672616,18.9033681 13.3732237,18.7871829 13.012273,18.7118196 C12.6513224,18.6364562 12.2061498,18.5799337 11.6767554,18.5422521 C11.147361,18.5045704 10.7322677,18.4857296 10.4314755,18.4857296 C10.1306833,18.4857295 9.74266125,18.4920098 9.26740945,18.5045704 C8.79215766,18.517131 8.50640501,18.5234113 8.41015152,18.5234113 L8.41015152,24.891613 C8.50640505,24.891613 8.72899132,24.9230144 9.07791033,24.9858172 C9.42682934,25.04862 9.7155899,25.0800214 9.94419202,25.0800214 C10.1727941,25.0800214 10.4916339,25.070601 10.9007114,25.0517601 C11.3097889,25.0329193 11.6617158,25.0077982 11.9564922,24.9763968 C12.2512686,24.9449954 12.5941718,24.8916131 12.9852017,24.8162497 C13.3762317,24.7408864 13.7101111,24.6529625 13.98684,24.5524781 C14.2635688,24.4519936 14.5493215,24.3201078 14.8440979,24.1568205 C15.1388743,23.9935333 15.3765002,23.805125 15.5569756,23.5915955 C15.7374509,23.3780661 15.8848391,23.126855 15.9991402,22.8379622 C16.1134412,22.5490694 16.1705918,22.2287752 16.1705918,21.8770797 L16.1705918,21.7075121 Z M14.8892167,12.7392753 C14.8892167,12.3247769 14.8140187,11.9573807 14.6636225,11.6370865 C14.5132264,11.3167924 14.3297431,11.0530207 14.1131727,10.8457715 C13.8966023,10.6385223 13.6078417,10.4626745 13.246891,10.3182282 C12.8859403,10.1737818 12.5550688,10.0701572 12.2542766,10.0073544 C11.9534843,9.94455163 11.5835099,9.8943094 11.1443532,9.85662773 C10.7051965,9.81894605 10.3562774,9.80324536 10.0975961,9.80952566 C9.83891477,9.81580595 9.51405913,9.82208623 9.12302919,9.8283665 C8.73199924,9.83464677 8.49437336,9.86604817 8.41015152,9.92257068 L8.41015152,15.7067066 C8.47030998,15.7067066 8.67785664,15.738108 9.03279151,15.8009108 C9.38772637,15.8637136 9.66746318,15.8637136 9.87200192,15.8009108 C10.0765407,15.738108 10.3773329,15.7255475 10.7743787,15.7632291 C11.1714245,15.8009108 11.502296,15.7663693 11.7669931,15.6596046 C12.0316903,15.5528398 12.3415063,15.4837568 12.6964412,15.4523554 C13.0513761,15.420954 13.3431446,15.3047689 13.5717467,15.1038 C13.8003488,14.902831 14.0229351,14.7332635 14.2395055,14.5950975 C14.4560759,14.4569314 14.6185037,14.2151407 14.7267889,13.8697254 C14.8350741,13.52431 14.8892168,13.2040159 14.8892168,12.9088428 L14.8892167,12.7392753 Z" id="bitcoin01"></path>
                    </g>
                </g>
            </g>
        </g>
    </g>
</svg>