<?xml version="1.0" standalone="no"?><!DOCTYPE svg PUBLIC "-//W3C//DTD SVG 1.1//EN" "http://www.w3.org/Graphics/SVG/1.1/DTD/svg11.dtd"><svg t="1532609751196" class="icon" style="" viewBox="0 0 1024 1024" version="1.1" xmlns="http://www.w3.org/2000/svg" p-id="2353" xmlns:xlink="http://www.w3.org/1999/xlink" width="16" height="16"><defs><style type="text/css"></style></defs><path d="M507.345455 958.836364c-174.545455 0-335.127273-102.4-407.272728-262.981819l44.218182-18.618181c65.163636 141.963636 207.127273 235.054545 365.381818 235.054545C728.436364 912.290909 907.636364 733.090909 907.636364 512S728.436364 111.709091 507.345455 111.709091c-148.945455 0-286.254545 81.454545-356.072728 216.436364l-41.890909-20.945455C188.509091 155.927273 339.781818 65.163636 507.345455 65.163636 754.036364 65.163636 954.181818 265.309091 954.181818 512s-200.145455 446.836364-446.836363 446.836364z" p-id="2354" fill="#8EA0B5"></path><path d="M69.818182 751.709091L93.090909 628.363636l114.036364 53.527273zM472.436364 397.963636c16.290909 13.963636 23.272727 32.581818 23.272727 55.854546 0 20.945455-9.309091 41.890909-25.6 60.509091-9.309091 9.309091-27.927273 23.272727-53.527273 41.890909-25.6 16.290909-41.890909 32.581818-48.872727 46.545454h128v37.236364h-179.2c0-25.6 9.309091-48.872727 25.6-67.490909 9.309091-11.636364 27.927273-25.6 58.181818-46.545455 16.290909-11.636364 27.927273-20.945455 34.909091-27.927272 11.636364-11.636364 16.290909-25.6 16.290909-39.563637 0-13.963636-4.654545-23.272727-11.636364-30.254545-6.981818-6.981818-18.618182-9.309091-32.581818-9.309091-16.290909 0-27.927273 4.654545-34.909091 16.290909-6.981818 9.309091-11.636364 25.6-13.963636 46.545455h-41.890909c0-27.927273 9.309091-51.2 25.6-69.818182 16.290909-18.618182 39.563636-27.927273 67.490909-27.927273 25.6-9.309091 46.545455 0 62.836364 13.963636zM646.981818 381.672727h39.563637v167.563637h37.236363V581.818182h-37.236363v55.854545h-39.563637V581.818182h-123.345454v-39.563637l123.345454-160.581818z m-2.327273 53.527273l-88.436363 116.363636h90.763636l-2.327273-116.363636z" p-id="2355" fill="#8EA0B5"></path><path d="M498.036364 88.436364v95.418181" p-id="2356" fill="#8EA0B5"></path><path d="M474.763636 88.436364h46.545455v95.418181h-46.545455z" p-id="2357" fill="#8EA0B5"></path><path d="M919.272727 512h-95.418182" p-id="2358" fill="#8EA0B5"></path><path d="M823.854545 488.727273h95.418182v46.545454h-95.418182z" p-id="2359" fill="#8EA0B5"></path></svg>