<?xml version="1.0" encoding="UTF-8"?>
<svg width="35px" height="35px" viewBox="0 0 35 35" version="1.1" xmlns="http://www.w3.org/2000/svg" xmlns:xlink="http://www.w3.org/1999/xlink">
    <!-- Generator: Sketch 50 (54983) - http://www.bohemiancoding.com/sketch -->
    <title>fail</title>
    <desc>Created with Sketch.</desc>
    <defs></defs>
    <g id="Page-1" stroke="none" stroke-width="1" fill="none" fill-rule="evenodd">
        <g id="Group-66-Copy" transform="translate(-62.000000, -61.000000)" fill="#DE5F5F" fill-rule="nonzero">
            <g id="fail" transform="translate(62.000000, 61.000000)">
                <path d="M17.4854581,0 C7.82837627,0 0,7.82857202 0,17.4854581 C0,27.1423441 7.82857202,34.9709161 17.4854581,34.9709161 C27.1423441,34.9709161 34.9709161,27.1423441 34.9709161,17.4854581 C34.9709161,7.82857202 27.1425398,0 17.4854581,0 Z M15.8050874,7.37081869 C15.8050874,6.43653824 16.5564121,5.67888759 17.4847812,5.67888759 C18.4132067,5.67888759 19.1643059,6.43653818 19.1643059,7.37081869 L19.1643059,19.4017605 C19.1643059,20.336041 18.4132067,21.0936916 17.4847812,21.0936916 C16.5564121,21.0936916 15.8050874,20.3360411 15.8050874,19.4017605 L15.8050874,7.37081869 Z M17.4854581,28.8348377 C16.1811728,28.8348377 15.1238698,27.770059 15.1238698,26.4562715 C15.1238698,25.142484 16.1811728,24.0774781 17.4854581,24.0774781 C18.7897434,24.0774781 19.8470464,25.142484 19.8470464,26.4562715 C19.8470464,27.7698318 18.7897434,28.8348377 17.4854581,28.8348377 Z" id="Shape"></path>
            </g>
        </g>
    </g>
</svg>