<?xml version="1.0" encoding="UTF-8"?>
<svg width="50px" height="50px" viewBox="0 0 50 50" version="1.1" xmlns="http://www.w3.org/2000/svg" xmlns:xlink="http://www.w3.org/1999/xlink">
    <!-- Generator: Sketch 50 (54983) - http://www.bohemiancoding.com/sketch -->
    <title>failed</title>
    <desc>Created with Sketch.</desc>
    <defs></defs>
    <g id="Page-1" stroke="none" stroke-width="1" fill="none" fill-rule="evenodd">
        <g id="08.个人中心19-身份认证-审核失败" transform="translate(-935.000000, -478.000000)" fill="#F0736A" fill-rule="nonzero">
            <g id="failed" transform="translate(935.000000, 478.000000)">
                <path d="M25,0 C11.2980769,0 0,11.2980769 0,25 C0,38.7019231 11.2980769,50 25,50 C38.7019231,50 50,38.7019231 50,25 C50,11.2980769 38.7019231,0 25,0 Z M25,47.5961538 C12.5,47.5961538 2.40384615,37.5 2.40384615,25 C2.40384615,12.5 12.5,2.40384615 25,2.40384615 C37.5,2.40384615 47.5961538,12.5 47.5961538,25 C47.5961538,37.5 37.5,47.5961538 25,47.5961538 Z" id="Shape"></path>
                <path d="M35.8796449,29.7258979 C33.2611936,33.2545684 29.2144961,35.5229994 24.9297577,35.5229994 C20.6450192,35.5229994 16.8363628,33.5066163 13.9798705,29.9779458 C13.5037884,29.47385 12.7896653,29.2218021 12.3135833,29.7258979 C11.8375012,29.9779458 11.8375012,30.9861374 12.3135833,31.4902331 C15.4081166,35.7750473 19.9308961,38.0434783 24.9297577,38.0434783 C29.9286192,38.0434783 34.6894397,35.5229994 37.7839731,31.4902331 C38.2600551,30.9861374 38.0220141,30.2299937 37.5459321,29.7258979 C36.831809,29.2218021 36.1176859,29.2218021 35.8796449,29.7258979 Z" id="Shape" transform="translate(25.000000, 33.695652) scale(1, -1) translate(-25.000000, -33.695652) "></path>
                <path d="M14.7826087,23.9130435 C15.6521739,23.9130435 16.3043478,23.1719368 16.3043478,22.1837945 L16.3043478,20.2075099 C16.3043478,19.2193676 15.6521739,18.4782609 14.7826087,18.4782609 C13.9130435,18.4782609 13.0434783,18.972332 13.0434783,19.9604743 L13.0434783,21.9367589 C13.0434783,22.9249012 13.6956522,23.9130435 14.7826087,23.9130435 Z" id="Shape"></path>
                <path d="M35.326087,23.9130435 C36.257764,23.9130435 36.9565217,23.1719368 36.9565217,22.1837945 L36.9565217,20.2075099 C36.9565217,19.2193676 36.257764,18.4782609 35.326087,18.4782609 C34.3944099,18.4782609 33.6956522,19.2193676 33.6956522,20.2075099 L33.6956522,22.1837945 C33.6956522,22.9249012 34.3944099,23.9130435 35.326087,23.9130435 Z" id="Shape"></path>
            </g>
        </g>
    </g>
</svg>