<?xml version="1.0" encoding="utf-8"?>
<!-- Generator: Adobe Illustrator 22.1.0, SVG Export Plug-In . SVG Version: 6.00 Build 0)  -->
<svg version="1.1" id="图层_1" xmlns="http://www.w3.org/2000/svg" xmlns:xlink="http://www.w3.org/1999/xlink" x="0px" y="0px"
	 viewBox="0 0 68 24" style="enable-background:new 0 0 68 24;" xml:space="preserve">
<style type="text/css">
	.st0{opacity:0.6;}
	.st1{fill:#FFFFFF;}
</style>
<title>logo_white</title>
<desc>Created with Sketch.</desc>
<g id="Group" transform="translate(0.000000, 1302.000000)" class="st0">
	<g id="logo_white" transform="translate(1288.000000, 64.000000)">
		<path id="Shape" class="st1" d="M-1262.5-1354.1l-1.4-1.9h-19.1c1-3.3,4.4-5.8,8.6-5.8h7.5l-2.8-3.9h-5.3
			c-7.1,0.3-12.8,5.4-12.8,11.6c0,6.2,5.7,11.3,12.7,11.6h5.4l3.1-3.9h-7.9c-4.1,0-7.6-2.5-8.6-5.8h19.2L-1262.5-1354.1z"/>
		<polygon id="Shape_1_" points="-1252.5,-1353.9 -1255.1,-1350 -1257.6,-1353.9 -1255.1,-1357.8 		"/>
		<path id="Shape_2_" class="st1" d="M-1223.7-1353.9l2.5-3.6c0.6-0.9,0.6-2.1,0-3.1l-2.5-3.8c-0.5-0.8-1.3-1.2-2.2-1.2h-12.4
			c-0.9,0-1.7,0.5-2.2,1.2l-2.5,3.8c-0.6,0.9-0.6,2.1,0,3l2.4,3.6l-2.5,3.8c-0.6,0.9-0.6,2.1,0,3l2.4,3.6c0.5,0.8,1.3,1.2,2.2,1.2
			h12.7c0.9,0,1.7-0.5,2.2-1.2l2.4-3.6c0.6-0.9,0.6-2.1,0-3L-1223.7-1353.9z M-1226.5-1360.9l0.1,0.2c0.6,0.9,0.6,2.1,0,3l-1.4,2h-9
			l-1.4-2c-0.6-0.9-0.6-2.1,0-3l0.1-0.2c0.5-0.8,1.3-1.2,2.2-1.2h6.8C-1227.9-1362.1-1227-1361.6-1226.5-1360.9z M-1238-1347.2
			L-1238-1347.2c-0.6-1-0.6-2.1,0-3.1l1.2-1.8h9.3l1.2,1.8c0.6,0.9,0.6,2.1,0,3c-0.5,0.8-1.3,1.2-2.2,1.2h-7.2
			C-1236.7-1346-1237.5-1346.4-1238-1347.2z"/>
		<polygon id="Shape_3_" class="st1" points="-1248.2,-1365.7 -1252.6,-1359.1 -1250,-1355.2 -1243.1,-1365.7 		"/>
		<polygon id="Shape_4_" class="st1" points="-1243.3,-1342.5 -1250,-1352.6 -1252.6,-1348.7 -1248.4,-1342.5 		"/>
		<polygon id="Shape_5_" class="st1" points="-1265.2,-1342.5 -1260.1,-1342.5 -1255.1,-1350 -1252.5,-1353.9 -1255.1,-1357.8 
			-1260.3,-1365.7 -1265.5,-1365.7 -1257.6,-1353.9 		"/>
	</g>
</g>
</svg>
