<?xml version="1.0" encoding="utf-8"?>
<!-- Generator: Adobe Illustrator 22.1.0, SVG Export Plug-In . SVG Version: 6.00 Build 0)  -->
<svg version="1.1" id="图层_1" xmlns="http://www.w3.org/2000/svg" xmlns:xlink="http://www.w3.org/1999/xlink" x="0px" y="0px"
	 viewBox="0 0 69 24" style="enable-background:new 0 0 69 24;" xml:space="preserve">
<style type="text/css">
	.st0{opacity:0.3;fill:url(#Shape_9_);enable-background:new    ;}
	.st1{fill:url(#Shape_10_);}
	.st2{fill:url(#Shape_11_);}
	.st3{fill:url(#Shape_12_);}
	.st4{fill:url(#Shape_13_);}
	.st5{opacity:0.3;fill:url(#Shape_14_);enable-background:new    ;}
	.st6{opacity:0.3;fill:url(#Shape_15_);enable-background:new    ;}
	.st7{fill:url(#Shape_16_);}
</style>
<title>logo</title>
<desc>Created with Sketch.</desc>
<g id="logo" transform="translate(79.750000, 72.000000)">
	
		<linearGradient id="Shape_9_" gradientUnits="userSpaceOnUse" x1="-103.8218" y1="-42.9046" x2="-102.8386" y2="-44.2189" gradientTransform="matrix(25.3575 0 0 -23.1975 2554.8904 -1072.1775)">
		<stop  offset="0" style="stop-color:#D13B9F"/>
		<stop  offset="1" style="stop-color:#5B2E8D"/>
	</linearGradient>
	<path id="Shape" class="st0" d="M-51-60.1l-1.4-1.9h-19.2c1-3.3,4.4-5.8,8.6-5.8h7.6l-2.9-3.9h-5.3c-7.1,0.3-12.8,5.4-12.8,11.6
		s5.7,11.3,12.8,11.6h5.4l3.2-3.8h-7.9c-4.2,0-7.6-2.5-8.6-5.8h19.2L-51-60.1z"/>
	
		<linearGradient id="Shape_10_" gradientUnits="userSpaceOnUse" x1="-103.8219" y1="-42.9047" x2="-102.839" y2="-44.219" gradientTransform="matrix(25.365 0 0 -23.1975 2553.1638 -1072.1775)">
		<stop  offset="0" style="stop-color:#D13B9F"/>
		<stop  offset="1" style="stop-color:#5B2E8D"/>
	</linearGradient>
	<path id="Shape_1_" class="st1" d="M-53.5-60.1l-1.4-1.9H-74c1-3.3,4.5-5.8,8.6-5.8h7.6l-2.8-3.9H-66c-7.1,0.3-12.8,5.4-12.8,11.6
		s5.7,11.3,12.8,11.6h5.4l3.1-3.9h-7.9c-4.2,0-7.6-2.5-8.6-5.8h19.2L-53.5-60.1z"/>
	<polygon id="Shape_2_" points="-43.4,-59.9 -46,-56 -48.5,-59.9 -46,-63.8 	"/>
	
		<linearGradient id="Shape_11_" gradientUnits="userSpaceOnUse" x1="-103.1375" y1="-43.6721" x2="-103.5059" y2="-43.1392" gradientTransform="matrix(23.0025 0 0 -23.1375 2350.0186 -1069.5)">
		<stop  offset="0" style="stop-color:#1C57BD"/>
		<stop  offset="1" style="stop-color:#2EB3AE"/>
	</linearGradient>
	<path id="Shape_3_" class="st2" d="M-14.5-59.9l2.5-3.6c0.6-0.9,0.6-2.1,0-3.1l-2.5-3.8c-0.5-0.8-1.3-1.2-2.2-1.2h-12.5
		c-0.9,0-1.7,0.5-2.2,1.2l-2.5,3.8c-0.6,0.9-0.6,2.1,0,3l2.4,3.6l-2.5,3.8c-0.6,0.9-0.6,2.1,0,3l2.4,3.6c0.5,0.8,1.3,1.2,2.2,1.2
		h12.8c0.9,0,1.7-0.5,2.3-1.2l2.4-3.6c0.6-0.9,0.6-2.1,0-3L-14.5-59.9z M-17.3-66.9l0.1,0.2c0.6,0.9,0.6,2.1,0,3l-1.4,2h-9l-1.4-2
		c-0.6-0.9-0.6-2.1,0-3l0.1-0.2c0.5-0.8,1.3-1.2,2.2-1.2h6.9C-18.7-68.1-17.8-67.6-17.3-66.9z M-28.9-53.2L-28.9-53.2
		c-0.6-1-0.6-2.1,0-3.1l1.2-1.8h9.3l1.2,1.8c0.6,0.9,0.6,2.1,0,3c-0.5,0.8-1.3,1.2-2.2,1.2h-7.2C-27.5-52-28.4-52.4-28.9-53.2z"/>
	
		<linearGradient id="Shape_12_" gradientUnits="userSpaceOnUse" x1="-101.9502" y1="-43.8741" x2="-101.3656" y2="-43.6036" gradientTransform="matrix(9.5325 0 0 -10.455 930.102 -524.2501)">
		<stop  offset="0" style="stop-color:#1C57BD"/>
		<stop  offset="1" style="stop-color:#2EB3AE"/>
	</linearGradient>
	<polygon id="Shape_4_" class="st3" points="-39,-71.7 -43.4,-65.1 -40.9,-61.2 -33.9,-71.7 	"/>
	
		<linearGradient id="Shape_13_" gradientUnits="userSpaceOnUse" x1="-101.5865" y1="-43.9529" x2="-101.9947" y2="-43.4086" gradientTransform="matrix(9.315 0 0 -10.155 907.2965 -498.2775)">
		<stop  offset="0" style="stop-color:#1C57BD"/>
		<stop  offset="1" style="stop-color:#2EB3AE"/>
	</linearGradient>
	<polygon id="Shape_5_" class="st4" points="-34.1,-48.5 -40.9,-58.6 -43.5,-54.7 -39.3,-48.5 	"/>
	
		<linearGradient id="Shape_14_" gradientUnits="userSpaceOnUse" x1="-101.1117" y1="-43.8187" x2="-103.1631" y2="-43.5604" gradientTransform="matrix(12.975 0 0 -23.2275 1278.7485 -1073.4674)">
		<stop  offset="0" style="stop-color:#1C57BD"/>
		<stop  offset="1" style="stop-color:#2EB38D"/>
	</linearGradient>
	<polygon id="Shape_6_" class="st5" points="-55.2,-48.5 -50,-48.5 -45,-56 -42.4,-59.9 -45,-63.8 -50.3,-71.7 -55.4,-71.7 
		-47.5,-59.9 	"/>
	
		<linearGradient id="Shape_15_" gradientUnits="userSpaceOnUse" x1="-101.1117" y1="-43.8187" x2="-103.1631" y2="-43.5604" gradientTransform="matrix(12.975 0 0 -23.2275 1279.8586 -1073.4674)">
		<stop  offset="0" style="stop-color:#1C57BD"/>
		<stop  offset="1" style="stop-color:#2EB38D"/>
	</linearGradient>
	<polygon id="Shape_7_" class="st6" points="-54,-48.5 -48.9,-48.5 -43.9,-56 -41.3,-59.9 -43.9,-63.8 -49.1,-71.7 -54.3,-71.7 
		-46.4,-59.9 	"/>
	
		<linearGradient id="Shape_16_" gradientUnits="userSpaceOnUse" x1="-101.8348" y1="-44.0508" x2="-102.647" y2="-43.6129" gradientTransform="matrix(12.975 0 0 -23.2275 1277.7588 -1073.4674)">
		<stop  offset="0" style="stop-color:#1C57BD"/>
		<stop  offset="1" style="stop-color:#2EB3AE"/>
	</linearGradient>
	<polygon id="Shape_8_" class="st7" points="-56.1,-48.5 -51,-48.5 -46,-56 -43.4,-59.9 -46,-63.8 -51.2,-71.7 -56.4,-71.7 
		-48.5,-59.9 	"/>
</g>
</svg>
