<?xml version="1.0" encoding="UTF-8"?>
<svg width="17px" height="18px" viewBox="0 0 17 18" version="1.1" xmlns="http://www.w3.org/2000/svg" xmlns:xlink="http://www.w3.org/1999/xlink">
    <!-- Generator: Sketch 50 (54983) - http://www.bohemiancoding.com/sketch -->
    <title>screen02</title>
    <desc>Created with Sketch.</desc>
    <defs></defs>
    <g id="Page-1" stroke="none" stroke-width="1" fill="none" fill-rule="evenodd">
        <g id="网络时间全屏02" transform="translate(-1650.000000, -21.000000)" fill="#49CCFF" fill-rule="nonzero">
            <g id="Group-31">
                <g id="Group-14" transform="translate(1650.000000, 21.000000)">
                    <g id="screen02">
                        <path d="M6.52600042,5.7947885 L6.52284455,0.665148187 C6.52263027,0.303236976 6.23073246,0.00970281187 5.87129529,0.00991709183 C5.51185812,0.0101508656 5.22033045,0.304055166 5.22054473,0.665946901 L5.22282397,4.36763733 L1.08026734,0.200437672 C0.836603581,-0.0446286932 0.44198439,-0.0443754446 0.197327129,0.200983138 C-0.0460639082,0.447627438 -0.0458301344,0.844954427 0.197872595,1.09000132 L4.34173442,5.2559347 L0.665349331,5.25823341 C0.305931657,5.25846718 0.0143844938,5.55237148 0.0145987738,5.91426322 C0.0148130538,6.27615494 0.306730353,6.5697086 0.666148027,6.56949432 L5.7607232,6.56631897 C6.23607016,6.56600728 6.52633158,6.31930454 6.52600042,5.7947885 Z" id="Shape"></path>
                        <path d="M11.2426708,6.57189044 L16.337246,6.56365012 C16.6966831,6.56306571 16.9879186,6.26886919 16.9873536,5.90695798 C16.9867692,5.54504677 16.6945792,5.2518048 16.3351615,5.25236974 L12.6587764,5.25831133 L16.7934239,1.08312466 C17.0365812,0.837532318 17.0359383,0.440205329 16.7920019,0.194106476 C16.5467991,-0.0507261153 16.1521994,-0.0500832564 15.9090616,0.195528555 L11.7757193,4.37203994 L11.7698167,0.670349502 C11.7692323,0.308457785 11.4770423,0.0151963247 11.1176246,0.0157807402 C10.7581874,0.0163651557 10.466952,0.310561673 10.4675169,0.672472884 L10.4756988,5.80211319 C10.4765559,6.3265903 10.7660381,6.57265017 11.2426708,6.57189044 Z" id="Shape"></path>
                        <path d="M5.76372323,10.5055173 L0.66914806,10.4976081 C0.309730386,10.4970432 0.0175598387,10.7903241 0.0169948981,11.1522353 C0.0164494323,11.5141465 0.307704378,11.8083236 0.667141546,11.808869 L4.34352663,11.8145769 L0.195866081,15.9766336 C-0.0480509283,16.2214467 -0.0486548186,16.6187737 0.194502445,16.8656518 C0.438945426,17.1112441 0.833545142,17.1118675 1.07744266,16.8670154 L5.22381749,12.7036535 L5.21814863,16.4053439 C5.21760316,16.7672551 5.50885811,17.0614321 5.86829528,17.0619776 C6.22773245,17.0625425 6.5198835,16.7692616 6.52044844,16.4073504 L6.52829913,11.2777101 C6.52909784,10.7532135 6.23907017,10.5062575 5.76372323,10.5055173 Z" id="Shape"></path>
                        <path d="M10.4673221,11.2784504 L10.4763222,16.4080907 C10.476965,16.7700019 10.769194,17.0632049 11.1286117,17.062562 C11.4880488,17.0619192 11.7792453,16.7676837 11.7786025,16.4057725 L11.7721154,12.704082 L15.9194253,16.8665284 C16.1633813,17.1113221 16.557981,17.1106208 16.8023656,16.8649505 C17.0454839,16.618014 17.0447825,16.220687 16.8008071,15.9759323 L12.6522115,11.8147911 L16.3285966,11.8082457 C16.6880142,11.8076028 16.9792302,11.5133673 16.9785874,11.1514561 C16.9779445,10.7895449 16.6857156,10.4963419 16.3262979,10.4969848 L11.2317227,10.5060433 C10.755051,10.5069199 10.466387,10.7539538 10.4673221,11.2784504 Z" id="Shape"></path>
                    </g>
                </g>
            </g>
        </g>
    </g>
</svg>