<?xml version="1.0" encoding="UTF-8"?>
<svg width="16px" height="17px" viewBox="0 0 16 17" version="1.1" xmlns="http://www.w3.org/2000/svg" xmlns:xlink="http://www.w3.org/1999/xlink">
    <!-- Generator: Sketch 50 (54983) - http://www.bohemiancoding.com/sketch -->
    <title>screen01</title>
    <desc>Created with Sketch.</desc>
    <defs></defs>
    <g id="Page-1" stroke="none" stroke-width="1" fill="none" fill-rule="evenodd">
        <g id="网络时间全屏01" transform="translate(-1679.000000, -21.000000)" fill="#49CCFF" fill-rule="nonzero">
            <g id="Group-31">
                <g id="Group-14" transform="translate(1679.000000, 21.000000)">
                    <g id="screen01">
                        <path d="M0.0129458689,0.668991453 L0.0129458689,0.672638177 L0.0129458689,5.29741311 C0.0129458689,5.6511453 0.300307692,5.93777778 0.653310541,5.93777778 C1.00631339,5.93777778 1.29367521,5.65041595 1.29367521,5.29741311 L1.29367521,2.31439316 L5.00093447,6.39288889 C5.23870085,6.65545299 5.64129915,6.67295726 5.90386325,6.43519088 C6.16642735,6.1974245 6.18393162,5.79482621 5.94616524,5.53226211 L2.08501425,1.28893447 L5.29194302,1.28893447 C5.64567521,1.28893447 5.93230769,1.00157265 5.93230769,0.648569801 C5.93230769,0.295566952 5.64494587,0.00820512821 5.29194302,0.00820512821 L0.667168091,0.00820512821 C0.50962963,0.00820512821 0.362301994,0.0643646724 0.254358974,0.162096866 C0.244148148,0.168660969 0.233207977,0.178871795 0.222997151,0.189811966 C0.082962963,0.315988604 0.0129458689,0.493948718 0.0129458689,0.668991453 Z" id="Shape"></path>
                        <path d="M15.9870541,0.668991453 L15.9870541,0.672638177 L15.9870541,5.29741311 C15.9870541,5.6511453 15.6996923,5.93777778 15.3466895,5.93777778 C14.9929573,5.93777778 14.7063248,5.65041595 14.7063248,5.29741311 L14.7063248,2.31439316 L10.9990655,6.39653561 C10.7612991,6.65909972 10.3587009,6.67660399 10.0961368,6.43883761 C9.83357265,6.20107123 9.81606838,5.79847293 10.0538348,5.53590883 L13.9149858,1.28966382 L10.708057,1.28966382 C10.3543248,1.28966382 10.0676923,1.00230199 10.0676923,0.649299145 C10.0676923,0.296296296 10.3550541,0.00893447293 10.708057,0.00893447293 L15.3328319,0.00893447293 C15.4903704,0.00893447293 15.637698,0.0650940171 15.745641,0.162826211 C15.7558519,0.170119658 15.766792,0.180330484 15.7770028,0.190541311 C15.917037,0.315988604 15.9870541,0.493948718 15.9870541,0.668991453 Z" id="Shape"></path>
                        <path d="M0.0129458689,15.4185299 L0.0129458689,15.4148832 L0.0129458689,10.7901083 C0.0129458689,10.4363761 0.300307692,10.1497436 0.653310541,10.1497436 C1.00631339,10.1497436 1.29367521,10.4371054 1.29367521,10.7901083 L1.29367521,13.7731282 L5.00093447,9.69463248 C5.23870085,9.43206838 5.64129915,9.4145641 5.90386325,9.65233048 C6.16642735,9.89009687 6.18393162,10.2926952 5.94616524,10.5552593 L2.08501425,14.7985869 L5.29194302,14.7985869 C5.64567521,14.7985869 5.93230769,15.0859487 5.93230769,15.4389516 C5.93230769,15.7919544 5.64494587,16.0793162 5.29194302,16.0793162 L0.667168091,16.0793162 C0.50962963,16.0793162 0.362301994,16.0231567 0.254358974,15.9254245 C0.244148148,15.9181311 0.233207977,15.9079202 0.222997151,15.8977094 C0.082962963,15.7722621 0.0129458689,15.5972194 0.0129458689,15.4185299 Z" id="Shape"></path>
                        <path d="M15.9870541,15.4185299 L15.9870541,15.4148832 L15.9870541,10.7901083 C15.9870541,10.4363761 15.6996923,10.1497436 15.3466895,10.1497436 C14.9929573,10.1497436 14.7063248,10.4371054 14.7063248,10.7901083 L14.7063248,13.7731282 L10.9990655,9.69463248 C10.7612991,9.43206838 10.3587009,9.4145641 10.0961368,9.65233048 C9.83357265,9.89009687 9.81606838,10.2926952 10.0538348,10.5552593 L13.9149858,14.8015043 L10.708057,14.8015043 C10.3543248,14.8015043 10.0676923,15.0888661 10.0676923,15.4418689 C10.0676923,15.7948718 10.3550541,16.0822336 10.708057,16.0822336 L15.3328319,16.0822336 C15.4903704,16.0822336 15.637698,16.0260741 15.745641,15.9283419 C15.7558519,15.9210484 15.766792,15.9108376 15.7770028,15.9006268 C15.917037,15.7722621 15.9870541,15.5972194 15.9870541,15.4185299 Z" id="Shape"></path>
                    </g>
                </g>
            </g>
        </g>
    </g>
</svg>