<?xml version="1.0" encoding="UTF-8"?>
<svg width="35px" height="35px" viewBox="0 0 35 35" version="1.1" xmlns="http://www.w3.org/2000/svg" xmlns:xlink="http://www.w3.org/1999/xlink">
    <!-- Generator: Sketch 50 (54983) - http://www.bohemiancoding.com/sketch -->
    <title>success</title>
    <desc>Created with Sketch.</desc>
    <defs></defs>
    <g id="Page-1" stroke="none" stroke-width="1" fill="none" fill-rule="evenodd">
        <g id="Group-66" transform="translate(-62.000000, -61.000000)" fill="#78A429" fill-rule="nonzero">
            <g id="success" transform="translate(62.000000, 61.000000)">
                <path d="M17.5,0 C7.83503,0 0,7.83503 0,17.5 C0,27.16504 7.83503,35 17.5,35 C27.16504,35 35,27.16504 35,17.5 C35,7.83503 27.16497,0 17.5,0 Z M27.53758,12.96071 L16.21942,24.27894 C16.21942,24.27894 16.21928,24.27908 16.21907,24.27929 C15.69729,24.80121 14.90167,24.88269 14.29428,24.52394 C14.18179,24.45744 14.07574,24.37582 13.97914,24.27929 C13.97907,24.27915 13.97893,24.27908 13.97893,24.27908 L7.46249,17.76264 C6.84397001,17.14412 6.84397001,16.14116 7.46249,15.5225 C8.08101,14.90398 9.08397,14.90398 9.70248999,15.5225 L15.09921,20.91922 L25.29765,10.72078 C25.91624,10.10226 26.9192,10.10226 27.53772,10.72078 C28.1561,11.3393 28.1561,12.34219 27.53758,12.96071 Z" id="Shape"></path>
            </g>
        </g>
    </g>
</svg>