<?xml version="1.0" encoding="UTF-8"?>
<svg width="36px" height="33px" viewBox="0 0 36 33" version="1.1" xmlns="http://www.w3.org/2000/svg" xmlns:xlink="http://www.w3.org/1999/xlink">
    <!-- Generator: Sketch 50 (54983) - http://www.bohemiancoding.com/sketch -->
    <title>verify</title>
    <desc>Created with Sketch.</desc>
    <defs></defs>
    <g id="Page-1" stroke="none" stroke-width="1" fill="none" fill-rule="evenodd">
        <g id="Group-18" transform="translate(-64.000000, -63.000000)" fill="#D2D2D2" fill-rule="nonzero">
            <g id="verify" transform="translate(64.000000, 63.000000)">
                <path d="M24.5403871,19.3303027 C27.0473449,19.3303027 29.0912159,21.3713151 29.0912159,23.8811315 C29.0912159,26.3909479 27.0502035,28.4319603 24.5403871,28.4319603 C22.0897802,28.3450872 20.1480249,26.3332777 20.1480249,23.8811315 C20.1480249,21.4289853 22.0897802,19.4171758 24.5403871,19.3303027 Z M24.5403871,16.0658263 C20.2241132,16.0658263 16.7250819,19.5648576 16.7250819,23.8811315 C16.7250819,28.1974054 20.2241132,31.6964367 24.5403871,31.6964367 C28.856661,31.6964367 32.3556923,28.1974054 32.3556923,23.8811315 C32.3556923,19.5648576 28.856661,16.0658263 24.5403871,16.0658263 Z" id="Shape"></path>
                <path d="M34.3423921,32.0480397 C34.0137939,32.0475787 33.6929857,31.9479488 33.4219355,31.7621836 L29.448536,29.0436923 C28.756374,28.5160281 28.5988712,27.538636 29.0902374,26.820251 C29.5816035,26.101866 30.5496013,25.894302 31.2923077,26.3480695 L35.2657072,29.0665608 C35.8545155,29.4723026 36.1113726,30.2135851 35.8998392,30.8966483 C35.6883057,31.5797115 35.057457,32.0460861 34.3423921,32.0480397 Z" id="Shape"></path>
                <path d="M3.5413995,17.6208834 L15.8532208,17.6208834 C14.6354739,19.0816079 14.2781538,20.8939355 14.095206,22.8977866 L3.5413995,22.8977866 L3.5413995,26.4166749 L14.095206,26.4166749 C14.6554839,28.466263 15.8189181,30.4358114 17.6140943,31.6935782 L3.5413995,31.6935782 C2.60789974,31.6943374 1.71241551,31.3238423 1.05233128,30.663758 C0.39224705,30.0036738 0.0217519143,29.1081896 0.0225111663,28.1746898 L0.0225111663,3.54818859 C0.0225111663,1.60436725 1.59757816,0.0293002481 3.5413995,0.0293002481 L22.888139,0.0293002481 C24.8319603,0.0293002481 26.4070273,1.60436725 26.4070273,3.54818859 L26.4070273,14.101995 L3.5413995,14.101995 L3.5413995,17.6208834 Z M22.888139,8.82509181 L22.888139,5.30906203 L3.5413995,5.30906203 L3.5413995,8.82795037 L22.888139,8.82795037 L22.888139,8.82509181 Z" id="Shape"></path>
            </g>
        </g>
    </g>
</svg>